Pretension2-Italic.ufo
<glyph name="parenright" format="2">
  <advance width="746"/>
  <unicode hex="0029"/>
  <outline>
    <contour>
      <point x="-43" y="-280" type="line"/>
      <point x="72" y="-104"/>
      <point x="233" y="198"/>
      <point x="332" y="474"/>
      <point x="354" y="607" type="qcurve" smooth="yes"/>
      <point x="378" y="753"/>
      <point x="373" y="1082"/>
      <point x="317" y="1421"/>
      <point x="265" y="1580" type="qcurve"/>
      <point x="441" y="1580" type="line"/>
      <point x="495" y="1457"/>
      <point x="556" y="1126"/>
      <point x="563" y="769"/>
      <point x="536" y="606" type="qcurve" smooth="yes"/>
      <point x="500" y="389"/>
      <point x="297" y="-62"/>
      <point x="133" y="-280" type="qcurve"/>
    </contour>
  </outline>
</glyph>
<glyph name="eight" format="2">
  <advance width="1264"/>
  <unicode hex="0038"/>
  <outline>
    <contour>
      <point x="545" y="-20" type="qcurve" smooth="yes"/>
      <point x="394" y="-20"/>
      <point x="176" y="87"/>
      <point x="74" y="275"/>
      <point x="94" y="397" type="qcurve" smooth="yes"/>
      <point x="110" y="492"/>
      <point x="213" y="652"/>
      <point x="362" y="759"/>
      <point x="446" y="774" type="qcurve"/>
      <point x="447" y="782" type="line"/>
      <point x="344" y="810"/>
      <point x="247" y="995"/>
      <point x="266" y="1113" type="qcurve" smooth="yes"/>
      <point x="285" y="1229"/>
      <point x="430" y="1408"/>
      <point x="650" y="1510"/>
      <point x="781" y="1510" type="qcurve" smooth="yes"/>
      <point x="911" y="1510"/>
      <point x="1104" y="1407"/>
      <point x="1198" y="1229"/>
      <point x="1179" y="1115" type="qcurve" smooth="yes"/>
      <point x="1166" y="1035"/>
      <point x="1084" y="897"/>
      <point x="963" y="801"/>
      <point x="889" y="782" type="qcurve"/>
      <point x="888" y="774" type="line"/>
      <point x="966" y="759"/>
      <point x="1080" y="651"/>
      <point x="1133" y="490"/>
      <point x="1116" y="394" type="qcurve" smooth="yes"/>
      <point x="1095" y="273"/>
      <point x="937" y="86"/>
      <point x="694" y="-20"/>
    </contour>
    <contour>
      <point x="555" y="145" type="qcurve" smooth="yes"/>
      <point x="652" y="145"/>
      <point x="812" y="209"/>
      <point x="916" y="327"/>
      <point x="929" y="408" type="qcurve" smooth="yes"/>
      <point x="942" y="490"/>
      <point x="883" y="616"/>
      <point x="754" y="689"/>
      <point x="661" y="689" type="qcurve" smooth="yes"/>
      <point x="570" y="689"/>
      <point x="409" y="619"/>
      <point x="298" y="493"/>
      <point x="283" y="409" type="qcurve" smooth="yes"/>
      <point x="269" y="331"/>
      <point x="322" y="212"/>
      <point x="453" y="145"/>
    </contour>
    <contour>
      <point x="672" y="848" type="qcurve" smooth="yes"/>
      <point x="752" y="848"/>
      <point x="889" y="912"/>
      <point x="981" y="1027"/>
      <point x="993" y="1102" type="qcurve" smooth="yes"/>
      <point x="1005" y="1177"/>
      <point x="958" y="1286"/>
      <point x="850" y="1346"/>
      <point x="770" y="1346" type="qcurve" smooth="yes"/>
      <point x="690" y="1346"/>
      <point x="553" y="1287"/>
      <point x="461" y="1178"/>
      <point x="448" y="1101" type="qcurve" smooth="yes"/>
      <point x="435" y="1025"/>
      <point x="482" y="911"/>
      <point x="592" y="848"/>
    </contour>
  </outline>
</glyph>
<glyph name="K" format="2">
  <advance width="1376"/>
  <unicode hex="004B"/>
  <anchor x="761" y="0" name="m.uni0326"/>
  <anchor x="1008" y="1490" name="m.uni030F_1"/>
  <outline>
    <contour>
      <point x="288" y="426" type="line"/>
      <point x="312" y="629" type="line"/>
      <point x="375" y="699"/>
      <point x="498" y="827"/>
      <point x="624" y="949"/>
      <point x="689" y="1009" type="qcurve" smooth="yes"/>
      <point x="1214" y="1490" type="line"/>
      <point x="1472" y="1490" type="line"/>
      <point x="723" y="808" type="line"/>
      <point x="712" y="809" type="line"/>
    </contour>
    <contour>
      <point x="87" y="0" type="line"/>
      <point x="334" y="1490" type="line"/>
      <point x="525" y="1490" type="line"/>
      <point x="440" y="980" type="line"/>
      <point x="383" y="659" type="line"/>
      <point x="371" y="566" type="line"/>
      <point x="278" y="0" type="line"/>
    </contour>
    <contour>
      <point x="1017" y="0" type="line"/>
      <point x="605" y="758" type="line"/>
      <point x="730" y="906" type="line"/>
      <point x="1226" y="0" type="line"/>
    </contour>
  </outline>
</glyph>
<glyph name="M" format="2">
  <advance width="1850"/>
  <unicode hex="004D"/>
  <anchor x="992" y="0" name="m.uni0326"/>
  <anchor x="1239" y="1490" name="m.uni030F_1"/>
  <outline>
    <contour>
      <point x="87" y="0" type="line"/>
      <point x="334" y="1490" type="line"/>
      <point x="604" y="1490" type="line"/>
      <point x="815" y="550" type="line" smooth="yes"/>
      <point x="823" y="516"/>
      <point x="840" y="415"/>
      <point x="857" y="299"/>
      <point x="872" y="185"/>
      <point x="877" y="138" type="qcurve"/>
      <point x="835" y="138" type="line"/>
      <point x="858" y="188"/>
      <point x="912" y="304"/>
      <point x="967" y="419"/>
      <point x="1016" y="517"/>
      <point x="1034" y="550" type="qcurve" smooth="yes"/>
      <point x="1553" y="1490" type="line"/>
      <point x="1824" y="1490" type="line"/>
      <point x="1577" y="0" type="line"/>
      <point x="1390" y="0" type="line"/>
      <point x="1530" y="851" type="line" smooth="yes"/>
      <point x="1538" y="901"/>
      <point x="1560" y="1025"/>
      <point x="1585" y="1157"/>
      <point x="1610" y="1286"/>
      <point x="1620" y="1342" type="qcurve"/>
      <point x="1636" y="1342" type="line"/>
      <point x="1603" y="1272"/>
      <point x="1532" y="1128"/>
      <point x="1465" y="996"/>
      <point x="1408" y="887"/>
      <point x="1388" y="851" type="qcurve" smooth="yes"/>
      <point x="914" y="0" type="line"/>
      <point x="749" y="0" type="line"/>
      <point x="552" y="851" type="line" smooth="yes"/>
      <point x="542" y="897"/>
      <point x="513" y="1052"/>
      <point x="480" y="1244"/>
      <point x="462" y="1342" type="qcurve"/>
      <point x="481" y="1342" type="line"/>
      <point x="473" y="1282"/>
      <point x="454" y="1150"/>
      <point x="434" y="1019"/>
      <point x="416" y="899"/>
      <point x="408" y="851" type="qcurve" smooth="yes"/>
      <point x="268" y="0" type="line"/>
    </contour>
  </outline>
</glyph>
<glyph name="V" format="2">
  <advance width="1413"/>
  <unicode hex="0056"/>
  <anchor x="852" y="0" name="m.uni0326"/>
  <anchor x="1099" y="1490" name="m.uni030F_1"/>
  <outline>
    <contour>
      <point x="507" y="0" type="line"/>
      <point x="206" y="1490" type="line"/>
      <point x="406" y="1490" type="line"/>
      <point x="575" y="606" type="line" smooth="yes"/>
      <point x="592" y="516"/>
      <point x="628" y="275"/>
      <point x="651" y="90" type="qcurve"/>
      <point x="615" y="90" type="line"/>
      <point x="696" y="272"/>
      <point x="817" y="524"/>
      <point x="859" y="606" type="qcurve" smooth="yes"/>
      <point x="1313" y="1490" type="line"/>
      <point x="1515" y="1490" type="line"/>
      <point x="726" y="0" type="line"/>
    </contour>
  </outline>
</glyph>
<glyph name="f" format="2">
  <advance width="764"/>
  <unicode hex="0066"/>
  <anchor x="468" y="0" name="m.uni0326"/>
  <anchor x="919" y="1597" name="m.uni030F_1"/>
  <outline>
    <contour>
      <point x="780" y="1118" type="line"/>
      <point x="756" y="972" type="line"/>
      <point x="89" y="972" type="line"/>
      <point x="113" y="1118" type="line"/>
    </contour>
    <contour>
      <point x="155" y="0" type="line"/>
      <point x="353" y="1195" type="line" smooth="yes"/>
      <point x="373" y="1313"/>
      <point x="477" y="1476"/>
      <point x="641" y="1560"/>
      <point x="749" y="1560" type="qcurve" smooth="yes"/>
      <point x="788" y="1560"/>
      <point x="858" y="1548"/>
      <point x="894" y="1540" type="qcurve"/>
      <point x="844" y="1386" type="line"/>
      <point x="827" y="1390"/>
      <point x="753" y="1394"/>
      <point x="723" y="1394" type="qcurve" smooth="yes"/>
      <point x="643" y="1394"/>
      <point x="551" y="1298"/>
      <point x="534" y="1198" type="qcurve" smooth="yes"/>
      <point x="336" y="0" type="line"/>
    </contour>
  </outline>
</glyph>
<glyph name="m" format="2">
  <advance width="1794"/>
  <unicode hex="006D"/>
  <anchor x="989" y="0" name="m.uni0326"/>
  <anchor x="1185" y="1180" name="m.uni030F_1"/>
  <outline>
    <contour>
      <point x="65" y="0" type="line"/>
      <point x="251" y="1118" type="line"/>
      <point x="426" y="1118" type="line"/>
      <point x="386" y="868" type="line"/>
      <point x="371" y="873" type="line"/>
      <point x="409" y="965"/>
      <point x="526" y="1082"/>
      <point x="663" y="1138"/>
      <point x="732" y="1138" type="qcurve" smooth="yes"/>
      <point x="818" y="1138"/>
      <point x="932" y="1064"/>
      <point x="989" y="939"/>
      <point x="991" y="860" type="qcurve"/>
      <point x="969" y="872" type="line"/>
      <point x="1003" y="955"/>
      <point x="1125" y="1074"/>
      <point x="1283" y="1138"/>
      <point x="1369" y="1138" type="qcurve" smooth="yes"/>
      <point x="1469" y="1138"/>
      <point x="1619" y="1051"/>
      <point x="1689" y="878"/>
      <point x="1667" y="748" type="qcurve" smooth="yes"/>
      <point x="1543" y="0" type="line"/>
      <point x="1362" y="0" type="line"/>
      <point x="1488" y="756" type="line" smooth="yes"/>
      <point x="1502" y="837"/>
      <point x="1457" y="933"/>
      <point x="1367" y="974"/>
      <point x="1311" y="974" type="qcurve" smooth="yes"/>
      <point x="1231" y="974"/>
      <point x="1105" y="907"/>
      <point x="1026" y="794"/>
      <point x="1014" y="724" type="qcurve" smooth="yes"/>
      <point x="894" y="0" type="line"/>
      <point x="714" y="0" type="line"/>
      <point x="842" y="773" type="line" smooth="yes"/>
      <point x="858" y="868"/>
      <point x="756" y="974"/>
      <point x="668" y="974" type="qcurve" smooth="yes"/>
      <point x="600" y="974"/>
      <point x="470" y="911"/>
      <point x="376" y="787"/>
      <point x="361" y="697" type="qcurve" smooth="yes"/>
      <point x="245" y="0" type="line"/>
    </contour>
  </outline>
</glyph>
<glyph name="currency" format="2">
  <advance width="1484"/>
  <unicode hex="00A4"/>
  <outline>
    <contour>
      <point x="642" y="-20" type="qcurve" smooth="yes"/>
      <point x="519" y="-20"/>
      <point x="319" y="75"/>
      <point x="185" y="246"/>
      <point x="131" y="475"/>
      <point x="153" y="608" type="qcurve" smooth="yes"/>
      <point x="174" y="741"/>
      <point x="303" y="969"/>
      <point x="494" y="1139"/>
      <point x="725" y="1234"/>
      <point x="848" y="1234" type="qcurve" smooth="yes"/>
      <point x="970" y="1234"/>
      <point x="1171" y="1140"/>
      <point x="1310" y="971"/>
      <point x="1367" y="743"/>
      <point x="1345" y="609" type="qcurve" smooth="yes"/>
      <point x="1323" y="475"/>
      <point x="1191" y="246"/>
      <point x="997" y="75"/>
      <point x="765" y="-20"/>
    </contour>
    <contour>
      <point x="668" y="142" type="qcurve" smooth="yes"/>
      <point x="757" y="142"/>
      <point x="925" y="214"/>
      <point x="1065" y="342"/>
      <point x="1161" y="510"/>
      <point x="1177" y="606" type="qcurve" smooth="yes"/>
      <point x="1200" y="736"/>
      <point x="1117" y="948"/>
      <point x="941" y="1074"/>
      <point x="822" y="1074" type="qcurve" smooth="yes"/>
      <point x="703" y="1074"/>
      <point x="487" y="949"/>
      <point x="337" y="738"/>
      <point x="315" y="608" type="qcurve" smooth="yes"/>
      <point x="293" y="481"/>
      <point x="374" y="269"/>
      <point x="549" y="142"/>
    </contour>
    <contour>
      <point x="1222" y="925" type="line"/>
      <point x="1124" y="1049" type="line"/>
      <point x="1360" y="1255" type="line"/>
      <point x="1462" y="1131" type="line"/>
    </contour>
    <contour>
      <point x="1148" y="-15" type="line"/>
      <point x="982" y="191" type="line"/>
      <point x="1122" y="313" type="line"/>
      <point x="1290" y="109" type="line"/>
    </contour>
    <contour>
      <point x="141" y="-15" type="line"/>
      <point x="44" y="109" type="line"/>
      <point x="280" y="313" type="line"/>
      <point x="380" y="191" type="line"/>
    </contour>
    <contour>
      <point x="382" y="925" type="line"/>
      <point x="216" y="1131" type="line"/>
      <point x="354" y="1255" type="line"/>
      <point x="522" y="1049" type="line"/>
    </contour>
  </outline>
</glyph>
<glyph name="ordfeminine" format="2">
  <advance width="921"/>
  <unicode hex="00AA"/>
  <outline>
    <component base="amod" xOffset="-4"/>
    <contour>
      <point x="796" y="579" type="line"/>
      <point x="774" y="453" type="line"/>
      <point x="110" y="453" type="line"/>
      <point x="132" y="579" type="line"/>
    </contour>
  </outline>
</glyph>
<glyph name="registered" format="2">
  <advance width="1374"/>
  <unicode hex="00AE"/>
  <outline>
    <contour>
      <point x="503" y="666" type="line"/>
      <point x="591" y="1202" type="line"/>
      <point x="863" y="1202" type="line" smooth="yes"/>
      <point x="898" y="1202"/>
      <point x="969" y="1164"/>
      <point x="1011" y="1089"/>
      <point x="1001" y="1032" type="qcurve" smooth="yes"/>
      <point x="991" y="973"/>
      <point x="921" y="890"/>
      <point x="834" y="848"/>
      <point x="797" y="848" type="qcurve" smooth="yes"/>
      <point x="600" y="848" type="line"/>
      <point x="616" y="937" type="line"/>
      <point x="776" y="937" type="line" smooth="yes"/>
      <point x="799" y="937"/>
      <point x="864" y="984"/>
      <point x="871" y="1033" type="qcurve" smooth="yes"/>
      <point x="878" y="1083"/>
      <point x="824" y="1115"/>
      <point x="807" y="1115" type="qcurve" smooth="yes"/>
      <point x="697" y="1115" type="line"/>
      <point x="623" y="666" type="line"/>
    </contour>
    <contour>
      <point x="871" y="920" type="line"/>
      <point x="962" y="666" type="line"/>
      <point x="830" y="666" type="line"/>
      <point x="743" y="920" type="line"/>
    </contour>
    <contour>
      <point x="748" y="346" type="qcurve" smooth="yes"/>
      <point x="627" y="346"/>
      <point x="416" y="437"/>
      <point x="257" y="597"/>
      <point x="166" y="808"/>
      <point x="166" y="928" type="qcurve" smooth="yes"/>
      <point x="166" y="1048"/>
      <point x="256" y="1259"/>
      <point x="415" y="1419"/>
      <point x="627" y="1510"/>
      <point x="748" y="1510" type="qcurve" smooth="yes"/>
      <point x="868" y="1510"/>
      <point x="1079" y="1419"/>
      <point x="1239" y="1259"/>
      <point x="1330" y="1048"/>
      <point x="1330" y="928" type="qcurve" smooth="yes"/>
      <point x="1330" y="808"/>
      <point x="1239" y="597"/>
      <point x="1079" y="437"/>
      <point x="868" y="346"/>
    </contour>
    <contour>
      <point x="748" y="487" type="qcurve" smooth="yes"/>
      <point x="839" y="487"/>
      <point x="999" y="555"/>
      <point x="1121" y="677"/>
      <point x="1189" y="837"/>
      <point x="1189" y="928" type="qcurve" smooth="yes"/>
      <point x="1189" y="1050"/>
      <point x="1069" y="1250"/>
      <point x="869" y="1369"/>
      <point x="748" y="1369" type="qcurve" smooth="yes"/>
      <point x="657" y="1369"/>
      <point x="497" y="1301"/>
      <point x="375" y="1179"/>
      <point x="307" y="1020"/>
      <point x="307" y="928" type="qcurve" smooth="yes"/>
      <point x="307" y="806"/>
      <point x="426" y="605"/>
      <point x="626" y="487"/>
    </contour>
  </outline>
</glyph>
<glyph name="threesuperior" format="2">
  <advance width="917"/>
  <unicode hex="00B3"/>
  <anchor x="630" y="1690" name="m.uni030F_1"/>
  <outline>
    <contour>
      <point x="514" y="888" type="qcurve" smooth="yes"/>
      <point x="414" y="888"/>
      <point x="264" y="945"/>
      <point x="187" y="1050"/>
      <point x="196" y="1121" type="qcurve"/>
      <point x="373" y="1121" type="line"/>
      <point x="370" y="1080"/>
      <point x="467" y="1030"/>
      <point x="540" y="1030" type="qcurve" smooth="yes"/>
      <point x="620" y="1030"/>
      <point x="728" y="1094"/>
      <point x="737" y="1149" type="qcurve" smooth="yes"/>
      <point x="745" y="1200"/>
      <point x="649" y="1274"/>
      <point x="549" y="1274" type="qcurve" smooth="yes"/>
      <point x="463" y="1274" type="line"/>
      <point x="482" y="1387" type="line"/>
      <point x="746" y="1565" type="line"/>
      <point x="747" y="1570" type="line"/>
      <point x="316" y="1570" type="line"/>
      <point x="339" y="1710" type="line"/>
      <point x="980" y="1710" type="line"/>
      <point x="960" y="1588" type="line"/>
      <point x="583" y="1328" type="line"/>
      <point x="589" y="1367" type="line"/>
      <point x="699" y="1381"/>
      <point x="856" y="1324"/>
      <point x="932" y="1210"/>
      <point x="919" y="1135" type="qcurve" smooth="yes"/>
      <point x="907" y="1059"/>
      <point x="792" y="948"/>
      <point x="618" y="888"/>
    </contour>
  </outline>
</glyph>
<glyph name="onesuperior" format="2">
  <advance width="611"/>
  <unicode hex="00B9"/>
  <outline>
    <contour>
      <point x="368" y="898" type="line"/>
      <point x="473" y="1533" type="line"/>
      <point x="482" y="1440" type="line"/>
      <point x="435" y="1440"/>
      <point x="325" y="1440"/>
      <point x="245" y="1440" type="curve"/>
      <point x="266" y="1570" type="line"/>
      <point x="385" y="1570"/>
      <point x="501" y="1624"/>
      <point x="551" y="1710" type="curve"/>
      <point x="676" y="1710" type="line"/>
      <point x="541" y="898" type="line"/>
    </contour>
  </outline>
</glyph>
<glyph name="divide" format="2">
  <advance width="1356"/>
  <unicode hex="00F7"/>
  <outline>
    <contour>
      <point x="1165" y="668" type="line"/>
      <point x="1138" y="498" type="line"/>
      <point x="200" y="498" type="line"/>
      <point x="227" y="668" type="line"/>
    </contour>
    <contour>
      <point x="609" y="72" type="qcurve" smooth="yes"/>
      <point x="547" y="72"/>
      <point x="481" y="158"/>
      <point x="488" y="215" type="qcurve" smooth="yes"/>
      <point x="492" y="249"/>
      <point x="534" y="304"/>
      <point x="597" y="336"/>
      <point x="631" y="336" type="qcurve" smooth="yes"/>
      <point x="684" y="336"/>
      <point x="756" y="258"/>
      <point x="749" y="196" type="qcurve" smooth="yes"/>
      <point x="743" y="141"/>
      <point x="656" y="72"/>
    </contour>
    <contour>
      <point x="734" y="830" type="qcurve" smooth="yes"/>
      <point x="695" y="830"/>
      <point x="635" y="868"/>
      <point x="605" y="933"/>
      <point x="611" y="973" type="qcurve" smooth="yes"/>
      <point x="619" y="1024"/>
      <point x="705" y="1095"/>
      <point x="758" y="1095" type="qcurve" smooth="yes"/>
      <point x="812" y="1095"/>
      <point x="884" y="1012"/>
      <point x="874" y="952" type="qcurve" smooth="yes"/>
      <point x="866" y="901"/>
      <point x="784" y="830"/>
    </contour>
  </outline>
</glyph>
<glyph name="Chook" format="2">
  <advance width="1495"/>
  <unicode hex="0187"/>
  <anchor x="964" y="1490" name="m.uni030F_1"/>
  <anchor x="699" y="1" name="m.uni0327_3"/>
  <outline>
    <contour>
      <point x="1286" y="1021" type="line"/>
      <point x="1353" y="1430" type="line" smooth="yes"/>
      <point x="1374" y="1558"/>
      <point x="1549" y="1685"/>
      <point x="1686" y="1685" type="qcurve" smooth="yes"/>
      <point x="1719" y="1685"/>
      <point x="1774" y="1680"/>
      <point x="1788" y="1676" type="qcurve"/>
      <point x="1764" y="1527" type="line"/>
      <point x="1749" y="1529"/>
      <point x="1717" y="1531"/>
      <point x="1706" y="1531" type="qcurve" smooth="yes"/>
      <point x="1619" y="1531"/>
      <point x="1535" y="1480"/>
      <point x="1527" y="1430" type="qcurve" smooth="yes"/>
      <point x="1460" y="1021" type="line"/>
    </contour>
    <contour>
      <point x="698" y="-20" type="qcurve" smooth="yes"/>
      <point x="529" y="-20"/>
      <point x="277" y="124"/>
      <point x="139" y="393"/>
      <point x="139" y="580" type="qcurve" smooth="yes"/>
      <point x="139" y="756"/>
      <point x="249" y="1089"/>
      <point x="455" y="1354"/>
      <point x="747" y="1510"/>
      <point x="929" y="1510" type="qcurve" smooth="yes"/>
      <point x="1044" y="1510"/>
      <point x="1237" y="1444"/>
      <point x="1380" y="1318"/>
      <point x="1459" y="1137"/>
      <point x="1460" y="1021" type="qcurve"/>
      <point x="1270" y="1021" type="line"/>
      <point x="1267" y="1097"/>
      <point x="1212" y="1213"/>
      <point x="1118" y="1293"/>
      <point x="994" y="1334"/>
      <point x="922" y="1334" type="qcurve" smooth="yes"/>
      <point x="782" y="1334"/>
      <point x="560" y="1206"/>
      <point x="405" y="990"/>
      <point x="323" y="723"/>
      <point x="323" y="585" type="qcurve" smooth="yes"/>
      <point x="323" y="445"/>
      <point x="421" y="253"/>
      <point x="593" y="156"/>
      <point x="705" y="156" type="qcurve" smooth="yes"/>
      <point x="781" y="156"/>
      <point x="926" y="197"/>
      <point x="1053" y="277"/>
      <point x="1151" y="393"/>
      <point x="1179" y="469" type="qcurve"/>
      <point x="1370" y="469" type="line"/>
      <point x="1331" y="355"/>
      <point x="1197" y="175"/>
      <point x="1018" y="47"/>
      <point x="810" y="-20"/>
    </contour>
  </outline>
</glyph>
<glyph name="Dhook" format="2">
  <advance width="1757"/>
  <unicode hex="018A"/>
  <anchor x="1369" y="0" name="m.uni0326"/>
  <anchor x="1459" y="1490" name="m.uni030F_1"/>
  <outline>
    <contour>
      <point x="151" y="1114" type="line"/>
      <point x="163" y="1188" type="line" smooth="yes"/>
      <point x="187" y="1336"/>
      <point x="363" y="1490"/>
      <point x="521" y="1490" type="qcurve" smooth="yes"/>
      <point x="614" y="1490" type="line"/>
      <point x="586" y="1323" type="line"/>
      <point x="494" y="1323" type="line" smooth="yes"/>
      <point x="427" y="1323"/>
      <point x="353" y="1258"/>
      <point x="341" y="1186" type="qcurve" smooth="yes"/>
      <point x="329" y="1114" type="line"/>
    </contour>
    <contour>
      <point x="865" y="0" type="qcurve" smooth="yes"/>
      <point x="472" y="0" type="line"/>
      <point x="499" y="168" type="line"/>
      <point x="847" y="168" type="line" smooth="yes"/>
      <point x="1030" y="168"/>
      <point x="1293" y="308"/>
      <point x="1454" y="569"/>
      <point x="1483" y="748" type="qcurve" smooth="yes"/>
      <point x="1513" y="928"/>
      <point x="1438" y="1185"/>
      <point x="1229" y="1322"/>
      <point x="1057" y="1322" type="qcurve" smooth="yes"/>
      <point x="683" y="1322" type="line"/>
      <point x="711" y="1490" type="line"/>
      <point x="1074" y="1490" type="line" smooth="yes"/>
      <point x="1292" y="1490"/>
      <point x="1584" y="1311"/>
      <point x="1706" y="978"/>
      <point x="1667" y="746" type="qcurve" smooth="yes"/>
      <point x="1628" y="511"/>
      <point x="1421" y="178"/>
      <point x="1090" y="0"/>
    </contour>
    <contour>
      <point x="804" y="1490" type="line"/>
      <point x="557" y="0" type="line"/>
      <point x="367" y="0" type="line"/>
      <point x="614" y="1490" type="line"/>
    </contour>
  </outline>
</glyph>
<glyph name="Schwa" format="2">
  <advance width="1526"/>
  <unicode hex="018F"/>
  <outline>
    <contour>
      <point x="658" y="-20" type="qcurve" smooth="yes"/>
      <point x="481" y="-20"/>
      <point x="223" y="129"/>
      <point x="103" y="401"/>
      <point x="132" y="586" type="qcurve" smooth="yes"/>
      <point x="158" y="749" type="line"/>
      <point x="1326" y="749" type="line"/>
      <point x="1298" y="583" type="line"/>
      <point x="260" y="583" type="line"/>
      <point x="319" y="594" type="line"/>
      <point x="297" y="460"/>
      <point x="380" y="263"/>
      <point x="562" y="156"/>
      <point x="687" y="156" type="qcurve" smooth="yes"/>
      <point x="825" y="156"/>
      <point x="1058" y="293"/>
      <point x="1220" y="557"/>
      <point x="1251" y="747" type="qcurve" smooth="yes"/>
      <point x="1282" y="938"/>
      <point x="1199" y="1199"/>
      <point x="1009" y="1334"/>
      <point x="878" y="1334" type="qcurve" smooth="yes"/>
      <point x="799" y="1334"/>
      <point x="659" y="1291"/>
      <point x="540" y="1209"/>
      <point x="446" y="1095"/>
      <point x="411" y="1023" type="qcurve"/>
      <point x="215" y="1023" type="line"/>
      <point x="253" y="1131"/>
      <point x="389" y="1310"/>
      <point x="572" y="1439"/>
      <point x="789" y="1510"/>
      <point x="907" y="1510" type="qcurve" smooth="yes"/>
      <point x="1099" y="1510"/>
      <point x="1363" y="1324"/>
      <point x="1474" y="983"/>
      <point x="1436" y="748" type="qcurve" smooth="yes"/>
      <point x="1407" y="570"/>
      <point x="1269" y="286"/>
      <point x="1065" y="86"/>
      <point x="807" y="-20"/>
    </contour>
  </outline>
</glyph>
<glyph name="florin" format="2">
  <advance width="798"/>
  <unicode hex="0192"/>
  <outline>
    <contour>
      <point x="758" y="1082" type="line"/>
      <point x="732" y="929" type="line"/>
      <point x="527" y="929" type="line"/>
      <point x="362" y="-69" type="line" smooth="yes"/>
      <point x="343" y="-184"/>
      <point x="241" y="-339"/>
      <point x="84" y="-418"/>
      <point x="-17" y="-418" type="qcurve" smooth="yes"/>
      <point x="-48" y="-418"/>
      <point x="-101" y="-413"/>
      <point x="-130" y="-404" type="qcurve"/>
      <point x="-89" y="-242" type="line"/>
      <point x="-73" y="-248"/>
      <point x="-6" y="-252"/>
      <point x="7" y="-252" type="qcurve" smooth="yes"/>
      <point x="66" y="-252"/>
      <point x="159" y="-155"/>
      <point x="173" y="-69" type="qcurve" smooth="yes"/>
      <point x="338" y="929" type="line"/>
      <point x="158" y="929" type="line"/>
      <point x="185" y="1082" type="line"/>
      <point x="364" y="1082" type="line"/>
      <point x="382" y="1191" type="line" smooth="yes"/>
      <point x="402" y="1309"/>
      <point x="511" y="1472"/>
      <point x="669" y="1556"/>
      <point x="762" y="1556" type="qcurve" smooth="yes"/>
      <point x="804" y="1556"/>
      <point x="901" y="1541"/>
      <point x="928" y="1530" type="qcurve"/>
      <point x="858" y="1369" type="line"/>
      <point x="845" y="1373"/>
      <point x="805" y="1379"/>
      <point x="778" y="1379" type="qcurve" smooth="yes"/>
      <point x="693" y="1379"/>
      <point x="587" y="1286"/>
      <point x="571" y="1191" type="qcurve" smooth="yes"/>
      <point x="553" y="1082" type="line"/>
    </contour>
  </outline>
</glyph>
<glyph name="Oi" format="2">
  <advance width="1786"/>
  <unicode hex="01A2"/>
  <outline>
    <contour>
      <point x="1287" y="769" type="line"/>
      <point x="1193" y="197" type="line"/>
      <point x="1137" y="129"/>
      <point x="968" y="32"/>
      <point x="762" y="-20"/>
      <point x="651" y="-20" type="qcurve" smooth="yes"/>
      <point x="453" y="-20"/>
      <point x="202" y="152"/>
      <point x="107" y="465"/>
      <point x="142" y="679" type="qcurve" smooth="yes"/>
      <point x="162" y="801" type="line"/>
      <point x="378" y="805" type="line"/>
      <point x="358" y="679" type="line" smooth="yes"/>
      <point x="332" y="512"/>
      <point x="387" y="276"/>
      <point x="553" y="152"/>
      <point x="692" y="152" type="qcurve" smooth="yes"/>
      <point x="781" y="152"/>
      <point x="940" y="203"/>
      <point x="996" y="254" type="qcurve"/>
      <point x="1081" y="769" type="line"/>
    </contour>
    <contour>
      <point x="1375" y="1293" type="qcurve"/>
      <point x="1282" y="733" type="line"/>
      <point x="1076" y="733" type="line"/>
      <point x="1159" y="1232" type="line"/>
      <point x="1125" y="1279"/>
      <point x="983" y="1336"/>
      <point x="890" y="1336" type="qcurve" smooth="yes"/>
      <point x="785" y="1336"/>
      <point x="616" y="1269"/>
      <point x="487" y="1137"/>
      <point x="400" y="940"/>
      <point x="379" y="811" type="qcurve" smooth="yes"/>
      <point x="360" y="696" type="line"/>
      <point x="146" y="696" type="line"/>
      <point x="164" y="811" type="line" smooth="yes"/>
      <point x="199" y="1032"/>
      <point x="404" y="1344"/>
      <point x="721" y="1510"/>
      <point x="922" y="1510" type="qcurve" smooth="yes"/>
      <point x="1028" y="1510"/>
      <point x="1210" y="1456"/>
      <point x="1343" y="1358"/>
    </contour>
    <contour>
      <point x="1758" y="1490" type="line"/>
      <point x="1442" y="-418" type="line"/>
      <point x="1234" y="-418" type="line"/>
      <point x="1516" y="1280" type="line"/>
      <point x="1261" y="1191" type="line"/>
      <point x="1291" y="1371" type="line"/>
      <point x="1598" y="1490" type="line"/>
    </contour>
  </outline>
</glyph>
<glyph name="yhook" format="2">
  <advance width="1396"/>
  <unicode hex="01B4"/>
  <anchor x="1182" y="0" name="m.uni0326"/>
  <anchor x="869" y="1180" name="m.uni030F_1"/>
  <anchor x="1038" y="0" name="m.uni0328_4"/>
  <outline>
    <contour>
      <point x="991" y="1118" type="line"/>
      <point x="1063" y="1259" type="line" smooth="yes"/>
      <point x="1093" y="1316"/>
      <point x="1152" y="1407"/>
      <point x="1222" y="1471"/>
      <point x="1318" y="1504"/>
      <point x="1385" y="1504" type="qcurve" smooth="yes"/>
      <point x="1423" y="1504"/>
      <point x="1487" y="1499"/>
      <point x="1508" y="1495" type="qcurve"/>
      <point x="1495" y="1353" type="line"/>
      <point x="1481" y="1355"/>
      <point x="1452" y="1356"/>
      <point x="1444" y="1356" type="qcurve" smooth="yes"/>
      <point x="1385" y="1356"/>
      <point x="1315" y="1330"/>
      <point x="1273" y="1282"/>
      <point x="1255" y="1249" type="qcurve" smooth="yes"/>
      <point x="1180" y="1118" type="line"/>
    </contour>
    <contour>
      <point x="-19" y="-405" type="qcurve"/>
      <point x="53" y="-249" type="line"/>
      <point x="70" y="-253" type="line" smooth="yes"/>
      <point x="125" y="-266"/>
      <point x="218" y="-253"/>
      <point x="301" y="-178"/>
      <point x="341" y="-99" type="qcurve" smooth="yes"/>
      <point x="388" y="-6" type="line"/>
      <point x="147" y="1118" type="line"/>
      <point x="335" y="1118" type="line"/>
      <point x="464" y="455" type="line" smooth="yes"/>
      <point x="484" y="352"/>
      <point x="503" y="147"/>
      <point x="516" y="51" type="qcurve"/>
      <point x="450" y="51" type="line"/>
      <point x="495" y="147"/>
      <point x="581" y="352"/>
      <point x="636" y="455" type="qcurve" smooth="yes"/>
      <point x="985" y="1118" type="line"/>
      <point x="1190" y="1118" type="line"/>
      <point x="486" y="-167" type="line" smooth="yes"/>
      <point x="438" y="-255"/>
      <point x="323" y="-370"/>
      <point x="188" y="-426"/>
      <point x="108" y="-426" type="qcurve" smooth="yes"/>
      <point x="64" y="-426"/>
      <point x="-5" y="-412"/>
    </contour>
  </outline>
</glyph>
<glyph name="Ezh" format="2">
  <advance width="1403"/>
  <unicode hex="01B7"/>
  <anchor x="986" y="1676" name="m.uni030F_1"/>
  <outline>
    <contour>
      <point x="19" y="67" type="qcurve"/>
      <point x="211" y="67" type="line"/>
      <point x="201" y="-33"/>
      <point x="287" y="-185"/>
      <point x="451" y="-270"/>
      <point x="556" y="-270" type="qcurve" smooth="yes"/>
      <point x="680" y="-270"/>
      <point x="881" y="-151"/>
      <point x="1014" y="51"/>
      <point x="1035" y="177" type="qcurve" smooth="yes"/>
      <point x="1059" y="321"/>
      <point x="970" y="532"/>
      <point x="769" y="648"/>
      <point x="625" y="648" type="qcurve" smooth="yes"/>
      <point x="511" y="648" type="line"/>
      <point x="538" y="803" type="line"/>
      <point x="1112" y="1307" type="line"/>
      <point x="1112" y="1319" type="line"/>
      <point x="309" y="1319" type="line"/>
      <point x="338" y="1490" type="line"/>
      <point x="1402" y="1490" type="line"/>
      <point x="1379" y="1351" type="line"/>
      <point x="765" y="808" type="line"/>
      <point x="763" y="794" type="line"/>
      <point x="929" y="787"/>
      <point x="1156" y="625"/>
      <point x="1254" y="353"/>
      <point x="1224" y="179" type="qcurve" smooth="yes"/>
      <point x="1201" y="44"/>
      <point x="1077" y="-182"/>
      <point x="891" y="-349"/>
      <point x="657" y="-440"/>
      <point x="523" y="-440" type="qcurve" smooth="yes"/>
      <point x="363" y="-440"/>
      <point x="123" y="-312"/>
      <point x="2" y="-83"/>
    </contour>
  </outline>
</glyph>
<glyph name="tonefive" format="2">
  <advance width="1114"/>
  <unicode hex="01BD"/>
  <outline>
    <contour>
      <point x="374" y="471" type="qcurve"/>
      <point x="198" y="485" type="line"/>
      <point x="367" y="1082" type="line"/>
      <point x="1052" y="1082" type="line"/>
      <point x="1023" y="905" type="line"/>
      <point x="512" y="905" type="line"/>
      <point x="447" y="673" type="line"/>
      <point x="482" y="696"/>
      <point x="608" y="732"/>
      <point x="666" y="734" type="qcurve" smooth="yes"/>
      <point x="845" y="739"/>
      <point x="1018" y="543"/>
      <point x="989" y="360" type="qcurve" smooth="yes"/>
      <point x="972" y="251"/>
      <point x="852" y="80"/>
      <point x="645" y="-18"/>
      <point x="494" y="-18" type="qcurve" smooth="yes"/>
      <point x="422" y="-18"/>
      <point x="281" y="22"/>
      <point x="169" y="102"/>
      <point x="114" y="225"/>
      <point x="128" y="307" type="qcurve"/>
      <point x="330" y="323" type="line"/>
      <point x="317" y="245"/>
      <point x="424" y="152"/>
      <point x="521" y="152" type="qcurve" smooth="yes"/>
      <point x="637" y="152"/>
      <point x="769" y="268"/>
      <point x="784" y="362" type="qcurve" smooth="yes"/>
      <point x="799" y="457"/>
      <point x="706" y="571"/>
      <point x="598" y="571" type="qcurve" smooth="yes"/>
      <point x="514" y="571"/>
      <point x="409" y="511"/>
    </contour>
    <contour>
      <point x="483" y="1082" type="line"/>
      <point x="454" y="905" type="line"/>
      <point x="151" y="905" type="line"/>
      <point x="180" y="1082" type="line"/>
    </contour>
  </outline>
</glyph>
<glyph name="Yogh" format="2">
  <advance width="1297"/>
  <unicode hex="021C"/>
  <outline>
    <contour>
      <point x="188" y="337" type="qcurve"/>
      <point x="215" y="493" type="line"/>
      <point x="398" y="546"/>
      <point x="682" y="660"/>
      <point x="883" y="795"/>
      <point x="1001" y="959"/>
      <point x="1018" y="1061" type="qcurve" smooth="yes"/>
      <point x="1040" y="1192"/>
      <point x="909" y="1336"/>
      <point x="770" y="1336" type="qcurve" smooth="yes"/>
      <point x="678" y="1336"/>
      <point x="537" y="1277"/>
      <point x="450" y="1173"/>
      <point x="439" y="1105" type="qcurve"/>
      <point x="224" y="1105" type="line"/>
      <point x="244" y="1229"/>
      <point x="403" y="1410"/>
      <point x="649" y="1510"/>
      <point x="799" y="1510" type="qcurve" smooth="yes"/>
      <point x="944" y="1510"/>
      <point x="1158" y="1410"/>
      <point x="1260" y="1217"/>
      <point x="1234" y="1075" type="qcurve" smooth="yes"/>
      <point x="1210" y="942"/>
      <point x="1035" y="711"/>
      <point x="757" y="522"/>
      <point x="397" y="381"/>
    </contour>
    <contour>
      <point x="812" y="642" type="qcurve"/>
      <point x="932" y="761" type="line"/>
      <point x="1015" y="732"/>
      <point x="1119" y="619"/>
      <point x="1154" y="442"/>
      <point x="1132" y="318" type="qcurve" smooth="yes"/>
      <point x="1101" y="145"/>
      <point x="919" y="-105"/>
      <point x="637" y="-279"/>
      <point x="273" y="-395"/>
      <point x="60" y="-436" type="qcurve"/>
      <point x="89" y="-264" type="line"/>
      <point x="268" y="-229"/>
      <point x="555" y="-134"/>
      <point x="766" y="5"/>
      <point x="896" y="203"/>
      <point x="919" y="340" type="qcurve" smooth="yes"/>
      <point x="941" y="471"/>
      <point x="889" y="613"/>
    </contour>
  </outline>
</glyph>
<glyph name="ou" format="2">
  <advance width="1294"/>
  <unicode hex="0223"/>
  <outline>
    <contour>
      <point x="687" y="880" type="qcurve"/>
      <point x="711" y="880" type="line" smooth="yes"/>
      <point x="867" y="880"/>
      <point x="1100" y="782"/>
      <point x="1213" y="585"/>
      <point x="1188" y="437" type="qcurve" smooth="yes"/>
      <point x="1162" y="283"/>
      <point x="983" y="80"/>
      <point x="719" y="-20"/>
      <point x="563" y="-20" type="qcurve" smooth="yes"/>
      <point x="539" y="-20" type="line" smooth="yes"/>
      <point x="386" y="-20"/>
      <point x="152" y="79"/>
      <point x="38" y="281"/>
      <point x="64" y="437" type="qcurve" smooth="yes"/>
      <point x="90" y="587"/>
      <point x="269" y="784"/>
      <point x="534" y="881"/>
    </contour>
    <contour>
      <point x="686" y="725" type="qcurve"/>
      <point x="664" y="725" type="line" smooth="yes"/>
      <point x="507" y="725"/>
      <point x="295" y="578"/>
      <point x="272" y="433" type="qcurve" smooth="yes"/>
      <point x="250" y="288"/>
      <point x="413" y="146"/>
      <point x="566" y="146" type="qcurve" smooth="yes"/>
      <point x="590" y="146" type="line" smooth="yes"/>
      <point x="742" y="146"/>
      <point x="956" y="290"/>
      <point x="980" y="437" type="qcurve" smooth="yes"/>
      <point x="1003" y="579"/>
      <point x="841" y="724"/>
    </contour>
    <contour>
      <point x="723" y="891" type="line" smooth="yes"/>
      <point x="815" y="891"/>
      <point x="973" y="934"/>
      <point x="1081" y="1044"/>
      <point x="1097" y="1143" type="qcurve" smooth="yes"/>
      <point x="1114" y="1247"/>
      <point x="1042" y="1365"/>
      <point x="952" y="1402" type="qcurve"/>
      <point x="979" y="1556" type="line"/>
      <point x="1088" y="1553"/>
      <point x="1252" y="1455"/>
      <point x="1328" y="1272"/>
      <point x="1305" y="1141" type="qcurve" smooth="yes"/>
      <point x="1280" y="993"/>
      <point x="1101" y="815"/>
      <point x="842" y="737"/>
      <point x="696" y="737" type="qcurve" smooth="yes"/>
      <point x="655" y="737" type="line" smooth="yes"/>
      <point x="508" y="737"/>
      <point x="275" y="816"/>
      <point x="156" y="995"/>
      <point x="180" y="1143" type="qcurve" smooth="yes"/>
      <point x="202" y="1274"/>
      <point x="338" y="1455"/>
      <point x="534" y="1552"/>
      <point x="645" y="1556" type="qcurve"/>
      <point x="618" y="1402" type="line"/>
      <point x="524" y="1367"/>
      <point x="408" y="1251"/>
      <point x="390" y="1144" type="qcurve" smooth="yes"/>
      <point x="373" y="1043"/>
      <point x="449" y="933"/>
      <point x="595" y="891"/>
      <point x="682" y="891" type="qcurve" smooth="yes"/>
    </contour>
  </outline>
</glyph>
<glyph name="tcurl" format="2">
  <advance width="838"/>
  <unicode hex="0236"/>
  <outline>
    <contour>
      <point x="407" y="-20" type="qcurve" smooth="yes"/>
      <point x="292" y="-20"/>
      <point x="169" y="75"/>
      <point x="132" y="222"/>
      <point x="144" y="298" type="qcurve" smooth="yes"/>
      <point x="200" y="640" type="line"/>
      <point x="381" y="640" type="line"/>
      <point x="321" y="278" type="line" smooth="yes"/>
      <point x="309" y="205"/>
      <point x="379" y="131"/>
      <point x="432" y="131" type="qcurve" smooth="yes"/>
      <point x="482" y="131"/>
      <point x="557" y="195"/>
      <point x="565" y="244" type="qcurve" smooth="yes"/>
      <point x="572" y="285"/>
      <point x="535" y="349"/>
      <point x="488" y="356" type="qcurve"/>
      <point x="455" y="362"/>
      <point x="391" y="348"/>
      <point x="330" y="315"/>
      <point x="300" y="289" type="qcurve" smooth="yes"/>
      <point x="-21" y="14" type="line"/>
      <point x="-115" y="133" type="line"/>
      <point x="157" y="367" type="line" smooth="yes"/>
      <point x="237" y="436"/>
      <point x="424" y="510"/>
      <point x="507" y="510" type="qcurve" smooth="yes"/>
      <point x="634" y="510"/>
      <point x="769" y="362"/>
      <point x="750" y="245" type="qcurve" smooth="yes"/>
      <point x="731" y="128"/>
      <point x="547" y="-20"/>
    </contour>
    <contour>
      <point x="161" y="398" type="line"/>
      <point x="324" y="1384" type="line"/>
      <point x="504" y="1384" type="line"/>
      <point x="341" y="398" type="line"/>
    </contour>
    <contour>
      <point x="88" y="965" type="line"/>
      <point x="113" y="1118" type="line"/>
      <point x="698" y="1118" type="line"/>
      <point x="673" y="965" type="line"/>
    </contour>
  </outline>
</glyph>
<glyph name="Cstroke" format="2">
  <advance width="1495"/>
  <unicode hex="023B"/>
  <anchor x="964" y="1490" name="m.uni030F_1"/>
  <anchor x="699" y="1" name="m.uni0327_3"/>
  <outline>
    <contour>
      <point x="214" y="-190" type="line"/>
      <point x="1185" y="1678" type="line"/>
      <point x="1351" y="1678" type="line"/>
      <point x="380" y="-190" type="line"/>
    </contour>
    <contour>
      <point x="698" y="-20" type="qcurve" smooth="yes"/>
      <point x="529" y="-20"/>
      <point x="277" y="124"/>
      <point x="139" y="393"/>
      <point x="139" y="580" type="qcurve" smooth="yes"/>
      <point x="139" y="756"/>
      <point x="249" y="1089"/>
      <point x="455" y="1354"/>
      <point x="747" y="1510"/>
      <point x="929" y="1510" type="qcurve" smooth="yes"/>
      <point x="1044" y="1510"/>
      <point x="1237" y="1444"/>
      <point x="1380" y="1318"/>
      <point x="1459" y="1137"/>
      <point x="1460" y="1021" type="qcurve"/>
      <point x="1270" y="1021" type="line"/>
      <point x="1267" y="1097"/>
      <point x="1212" y="1213"/>
      <point x="1118" y="1293"/>
      <point x="994" y="1334"/>
      <point x="922" y="1334" type="qcurve" smooth="yes"/>
      <point x="782" y="1334"/>
      <point x="560" y="1206"/>
      <point x="405" y="990"/>
      <point x="323" y="723"/>
      <point x="323" y="585" type="qcurve" smooth="yes"/>
      <point x="323" y="445"/>
      <point x="421" y="253"/>
      <point x="593" y="156"/>
      <point x="705" y="156" type="qcurve" smooth="yes"/>
      <point x="781" y="156"/>
      <point x="926" y="197"/>
      <point x="1053" y="277"/>
      <point x="1151" y="393"/>
      <point x="1179" y="469" type="qcurve"/>
      <point x="1370" y="469" type="line"/>
      <point x="1331" y="355"/>
      <point x="1197" y="175"/>
      <point x="1018" y="47"/>
      <point x="810" y="-20"/>
    </contour>
  </outline>
</glyph>
<glyph name="alphaturned" format="2">
  <advance width="1254"/>
  <unicode hex="0252"/>
  <outline>
    <contour>
      <point x="597" y="-24" type="qcurve" smooth="yes"/>
      <point x="490" y="-24"/>
      <point x="365" y="48"/>
      <point x="302" y="142"/>
      <point x="288" y="173" type="qcurve"/>
      <point x="272" y="173" type="line"/>
      <point x="244" y="0" type="line"/>
      <point x="66" y="0" type="line"/>
      <point x="251" y="1118" type="line"/>
      <point x="429" y="1118" type="line"/>
      <point x="400" y="939" type="line"/>
      <point x="416" y="939" type="line"/>
      <point x="440" y="970"/>
      <point x="522" y="1061"/>
      <point x="661" y="1132"/>
      <point x="769" y="1132" type="qcurve" smooth="yes"/>
      <point x="908" y="1132"/>
      <point x="1099" y="993"/>
      <point x="1179" y="736"/>
      <point x="1150" y="558" type="qcurve" smooth="yes"/>
      <point x="1121" y="378"/>
      <point x="963" y="117"/>
      <point x="734" y="-24"/>
    </contour>
    <contour>
      <point x="579" y="137" type="qcurve" smooth="yes"/>
      <point x="684" y="137"/>
      <point x="844" y="249"/>
      <point x="948" y="440"/>
      <point x="967" y="558" type="qcurve" smooth="yes"/>
      <point x="986" y="674"/>
      <point x="947" y="861"/>
      <point x="824" y="971"/>
      <point x="717" y="971" type="qcurve" smooth="yes"/>
      <point x="614" y="971"/>
      <point x="457" y="867"/>
      <point x="355" y="681"/>
      <point x="334" y="557" type="qcurve" smooth="yes"/>
      <point x="314" y="433"/>
      <point x="355" y="244"/>
      <point x="478" y="137"/>
    </contour>
  </outline>
</glyph>
<glyph name="rlongleg" format="2">
  <advance width="785"/>
  <unicode hex="027C"/>
  <unicode hex="E05E"/>
  <outline>
    <contour>
      <point x="-6" y="-419" type="line"/>
      <point x="64" y="0" type="line"/>
      <point x="236" y="0" type="line"/>
      <point x="166" y="-419" type="line"/>
    </contour>
    <contour>
      <point x="64" y="0" type="line"/>
      <point x="250" y="1118" type="line"/>
      <point x="416" y="1118" type="line"/>
      <point x="387" y="948" type="line"/>
      <point x="399" y="948" type="line"/>
      <point x="442" y="1031"/>
      <point x="619" y="1135"/>
      <point x="721" y="1135" type="qcurve" smooth="yes"/>
      <point x="767" y="1135"/>
      <point x="833" y="1113"/>
      <point x="855" y="1094" type="qcurve"/>
      <point x="774" y="951" type="line"/>
      <point x="759" y="960"/>
      <point x="711" y="969"/>
      <point x="678" y="969" type="qcurve" smooth="yes"/>
      <point x="596" y="969"/>
      <point x="457" y="900"/>
      <point x="364" y="783"/>
      <point x="352" y="707" type="qcurve" smooth="yes"/>
      <point x="236" y="0" type="line"/>
    </contour>
  </outline>
</glyph>
<glyph name="eshcurl" format="2">
  <advance width="1049"/>
  <unicode hex="0286"/>
  <outline>
    <contour>
      <point x="610" y="-100" type="line" smooth="yes"/>
      <point x="597" y="-178"/>
      <point x="510" y="-324"/>
      <point x="356" y="-418"/>
      <point x="242" y="-418" type="qcurve" smooth="yes"/>
      <point x="103" y="-418"/>
      <point x="-33" y="-272"/>
      <point x="-14" y="-154" type="qcurve" smooth="yes"/>
      <point x="0" y="-72"/>
      <point x="95" y="47"/>
      <point x="236" y="112"/>
      <point x="317" y="112" type="qcurve" smooth="yes"/>
      <point x="396" y="112"/>
      <point x="559" y="41"/>
      <point x="619" y="-31" type="qcurve" smooth="yes"/>
      <point x="814" y="-265" type="line"/>
      <point x="681" y="-384" type="line"/>
      <point x="451" y="-109" type="line" smooth="yes"/>
      <point x="432" y="-86"/>
      <point x="384" y="-51"/>
      <point x="323" y="-36"/>
      <point x="284" y="-42" type="qcurve" smooth="yes"/>
      <point x="240" y="-49"/>
      <point x="179" y="-107"/>
      <point x="171" y="-151" type="qcurve" smooth="yes"/>
      <point x="161" y="-203"/>
      <point x="216" y="-267"/>
      <point x="266" y="-267" type="qcurve" smooth="yes"/>
      <point x="319" y="-267"/>
      <point x="414" y="-193"/>
      <point x="426" y="-120" type="qcurve" smooth="yes"/>
      <point x="648" y="1222" type="line" smooth="yes"/>
      <point x="668" y="1340"/>
      <point x="772" y="1503"/>
      <point x="936" y="1587"/>
      <point x="1044" y="1587" type="qcurve" smooth="yes"/>
      <point x="1081" y="1587"/>
      <point x="1149" y="1576"/>
      <point x="1188" y="1567" type="qcurve"/>
      <point x="1139" y="1412" type="line"/>
      <point x="1123" y="1416"/>
      <point x="1047" y="1420"/>
      <point x="1018" y="1420" type="qcurve" smooth="yes"/>
      <point x="938" y="1420"/>
      <point x="846" y="1325"/>
      <point x="829" y="1225" type="qcurve" smooth="yes"/>
    </contour>
  </outline>
</glyph>
<glyph name="tccurl" format="2">
  <advance width="1636"/>
  <unicode hex="02A8"/>
  <outline>
    <contour>
      <point x="996" y="-24" type="qcurve" smooth="yes"/>
      <point x="839" y="-24"/>
      <point x="634" y="124"/>
      <point x="554" y="385"/>
      <point x="582" y="554" type="qcurve" smooth="yes"/>
      <point x="611" y="724"/>
      <point x="779" y="984"/>
      <point x="1031" y="1132"/>
      <point x="1183" y="1132" type="qcurve" smooth="yes"/>
      <point x="1303" y="1132"/>
      <point x="1480" y="1044"/>
      <point x="1576" y="884"/>
      <point x="1572" y="776" type="qcurve"/>
      <point x="1391" y="776" type="line"/>
      <point x="1384" y="850"/>
      <point x="1275" y="971"/>
      <point x="1161" y="971" type="qcurve" smooth="yes"/>
      <point x="1063" y="971"/>
      <point x="898" y="869"/>
      <point x="786" y="683"/>
      <point x="765" y="557" type="qcurve" smooth="yes"/>
      <point x="744" y="428"/>
      <point x="795" y="239"/>
      <point x="927" y="137"/>
      <point x="1026" y="137" type="qcurve" smooth="yes"/>
      <point x="1091" y="137"/>
      <point x="1209" y="177"/>
      <point x="1290" y="254"/>
      <point x="1299" y="309" type="qcurve" smooth="yes"/>
      <point x="1307" y="355"/>
      <point x="1259" y="400"/>
      <point x="1199" y="400" type="qcurve" smooth="yes"/>
      <point x="1140" y="400"/>
      <point x="1027" y="356"/>
      <point x="913" y="273"/>
      <point x="850" y="212" type="qcurve" smooth="yes"/>
      <point x="787" y="152"/>
      <point x="639" y="49"/>
      <point x="478" y="-14"/>
      <point x="394" y="-14" type="qcurve" smooth="yes"/>
      <point x="309" y="-14"/>
      <point x="184" y="55"/>
      <point x="128" y="195"/>
      <point x="145" y="301" type="qcurve" smooth="yes"/>
      <point x="324" y="1384" type="line"/>
      <point x="504" y="1384" type="line"/>
      <point x="325" y="302" type="line" smooth="yes"/>
      <point x="311" y="216"/>
      <point x="377" y="147"/>
      <point x="426" y="147" type="qcurve" smooth="yes"/>
      <point x="485" y="147"/>
      <point x="642" y="234"/>
      <point x="725" y="308" type="qcurve" smooth="yes"/>
      <point x="808" y="382"/>
      <point x="972" y="495"/>
      <point x="1142" y="559"/>
      <point x="1234" y="559" type="qcurve" smooth="yes"/>
      <point x="1368" y="559"/>
      <point x="1488" y="417"/>
      <point x="1468" y="306" type="qcurve" smooth="yes"/>
      <point x="1451" y="209"/>
      <point x="1316" y="60"/>
      <point x="1114" y="-24"/>
    </contour>
    <contour>
      <point x="88" y="965" type="line"/>
      <point x="113" y="1118" type="line"/>
      <point x="698" y="1118" type="line"/>
      <point x="673" y="965" type="line"/>
    </contour>
  </outline>
</glyph>
<glyph name="ysupmod" format="2">
  <advance width="780"/>
  <unicode hex="02B8"/>
  <outline>
    <contour>
      <point x="177" y="454" type="qcurve" smooth="yes"/>
      <point x="140" y="454"/>
      <point x="82" y="467"/>
      <point x="68" y="474" type="qcurve"/>
      <point x="126" y="600" type="line"/>
      <point x="182" y="580"/>
      <point x="266" y="606"/>
      <point x="301" y="669" type="qcurve" smooth="yes"/>
      <point x="334" y="728" type="line"/>
      <point x="192" y="1490" type="line"/>
      <point x="360" y="1490" type="line"/>
      <point x="444" y="903" type="line"/>
      <point x="450" y="903" type="line"/>
      <point x="728" y="1490" type="line"/>
      <point x="900" y="1490" type="line"/>
      <point x="457" y="642" type="line" smooth="yes"/>
      <point x="414" y="559"/>
      <point x="275" y="454"/>
    </contour>
  </outline>
</glyph>
<glyph name="glottalstopreversedmod" format="2">
  <advance width="921"/>
  <unicode hex="02C1"/>
  <outline>
    <contour>
      <point x="961" y="1517" type="qcurve"/>
      <point x="797" y="1517" type="line"/>
      <point x="798" y="1576"/>
      <point x="741" y="1650"/>
      <point x="664" y="1650" type="qcurve" smooth="yes"/>
      <point x="557" y="1650"/>
      <point x="461" y="1509"/>
      <point x="444" y="1406" type="qcurve" smooth="yes"/>
      <point x="427" y="1305" type="line" smooth="yes"/>
      <point x="416" y="1240"/>
      <point x="419" y="1114"/>
      <point x="484" y="1032"/>
      <point x="565" y="1032" type="qcurve" smooth="yes"/>
      <point x="598" y="1032" type="line"/>
      <point x="572" y="880" type="line"/>
      <point x="536" y="880" type="line" smooth="yes"/>
      <point x="358" y="880"/>
      <point x="207" y="1106"/>
      <point x="241" y="1306" type="qcurve" smooth="yes"/>
      <point x="258" y="1407" type="line" smooth="yes"/>
      <point x="276" y="1514"/>
      <point x="387" y="1696"/>
      <point x="568" y="1806"/>
      <point x="690" y="1806" type="qcurve" smooth="yes"/>
      <point x="835" y="1806"/>
      <point x="978" y="1639"/>
    </contour>
    <contour>
      <point x="446" y="1032" type="line"/>
      <point x="631" y="1032" type="line"/>
      <point x="567" y="652" type="line"/>
      <point x="382" y="652" type="line"/>
    </contour>
  </outline>
</glyph>
<glyph name="glottalstopsupreversedmod" format="2">
  <advance width="919"/>
  <unicode hex="02E4"/>
  <outline>
    <contour>
      <point x="731" y="1169" type="line"/>
      <point x="733" y="1227"/>
      <point x="663" y="1310"/>
      <point x="584" y="1310" type="qcurve" smooth="yes"/>
      <point x="493" y="1310"/>
      <point x="393" y="1197"/>
      <point x="378" y="1102" type="qcurve" smooth="yes"/>
      <point x="364" y="1011"/>
      <point x="420" y="903"/>
      <point x="520" y="903" type="qcurve" smooth="yes"/>
      <point x="556" y="903" type="line"/>
      <point x="529" y="750" type="line"/>
      <point x="489" y="750" type="line"/>
      <point x="387" y="751"/>
      <point x="240" y="830"/>
      <point x="174" y="986"/>
      <point x="192" y="1101" type="qcurve" smooth="yes"/>
      <point x="211" y="1216"/>
      <point x="331" y="1379"/>
      <point x="510" y="1466"/>
      <point x="614" y="1466" type="qcurve" smooth="yes"/>
      <point x="712" y="1466"/>
      <point x="859" y="1394"/>
      <point x="933" y="1261"/>
      <point x="919" y="1169" type="qcurve"/>
    </contour>
    <contour>
      <point x="563" y="652" type="line"/>
      <point x="377" y="652" type="line"/>
      <point x="421" y="903" type="line"/>
      <point x="607" y="903" type="line"/>
    </contour>
  </outline>
</glyph>
<glyph name="almostequaltoabovecomb" format="2">
  <unicode hex="034C"/>
  <outline>
    <contour>
      <point x="-196" y="1456" type="qcurve"/>
      <point x="-61" y="1448" type="line"/>
      <point x="-70" y="1391"/>
      <point x="-144" y="1306"/>
      <point x="-252" y="1259"/>
      <point x="-314" y="1259" type="qcurve" smooth="yes"/>
      <point x="-364" y="1259"/>
      <point x="-427" y="1280"/>
      <point x="-475" y="1308"/>
      <point x="-528" y="1329"/>
      <point x="-568" y="1329" type="qcurve" smooth="yes"/>
      <point x="-608" y="1329"/>
      <point x="-674" y="1281"/>
      <point x="-681" y="1246" type="qcurve"/>
      <point x="-812" y="1254" type="line"/>
      <point x="-803" y="1308"/>
      <point x="-731" y="1394"/>
      <point x="-624" y="1443"/>
      <point x="-562" y="1443" type="qcurve" smooth="yes"/>
      <point x="-507" y="1443"/>
      <point x="-433" y="1410"/>
      <point x="-359" y="1376"/>
      <point x="-305" y="1376" type="qcurve" smooth="yes"/>
      <point x="-266" y="1376"/>
      <point x="-203" y="1422"/>
    </contour>
    <contour>
      <point x="-160" y="1669" type="qcurve"/>
      <point x="-26" y="1658" type="line"/>
      <point x="-34" y="1603"/>
      <point x="-107" y="1519"/>
      <point x="-216" y="1472"/>
      <point x="-278" y="1472" type="qcurve" smooth="yes"/>
      <point x="-328" y="1472"/>
      <point x="-391" y="1492"/>
      <point x="-439" y="1519"/>
      <point x="-492" y="1539"/>
      <point x="-533" y="1539" type="qcurve" smooth="yes"/>
      <point x="-571" y="1539"/>
      <point x="-638" y="1493"/>
      <point x="-644" y="1457" type="qcurve"/>
      <point x="-779" y="1463" type="line"/>
      <point x="-768" y="1519"/>
      <point x="-696" y="1606"/>
      <point x="-589" y="1656"/>
      <point x="-528" y="1656" type="qcurve" smooth="yes"/>
      <point x="-472" y="1656"/>
      <point x="-397" y="1621"/>
      <point x="-324" y="1586"/>
      <point x="-271" y="1586" type="qcurve" smooth="yes"/>
      <point x="-230" y="1586"/>
      <point x="-167" y="1633"/>
    </contour>
  </outline>
</glyph>
<glyph name="doublebrevecomb" format="2">
  <unicode hex="035D"/>
  <outline>
    <contour>
      <point x="107" y="1184" type="qcurve" smooth="yes"/>
      <point x="-23" y="1184"/>
      <point x="-238" y="1236"/>
      <point x="-404" y="1323"/>
      <point x="-517" y="1431"/>
      <point x="-546" y="1488" type="qcurve"/>
      <point x="-382" y="1488" type="line"/>
      <point x="-358" y="1460"/>
      <point x="-260" y="1398"/>
      <point x="-124" y="1346"/>
      <point x="40" y="1313"/>
      <point x="130" y="1313" type="qcurve" smooth="yes"/>
      <point x="220" y="1313"/>
      <point x="395" y="1346"/>
      <point x="549" y="1399"/>
      <point x="667" y="1460"/>
      <point x="700" y="1488" type="qcurve"/>
      <point x="864" y="1488" type="line"/>
      <point x="815" y="1430"/>
      <point x="663" y="1322"/>
      <point x="468" y="1235"/>
      <point x="237" y="1184"/>
    </contour>
  </outline>
</glyph>
<glyph name="breveinverteddoublecomb" format="2">
  <unicode hex="0361"/>
  <outline>
    <contour>
      <point x="814" y="1181" type="qcurve"/>
      <point x="650" y="1181" type="line"/>
      <point x="626" y="1208"/>
      <point x="530" y="1270"/>
      <point x="395" y="1324"/>
      <point x="230" y="1358"/>
      <point x="138" y="1358" type="qcurve" smooth="yes"/>
      <point x="46" y="1358"/>
      <point x="-130" y="1324"/>
      <point x="-283" y="1270"/>
      <point x="-399" y="1209"/>
      <point x="-432" y="1181" type="qcurve"/>
      <point x="-596" y="1181" type="line"/>
      <point x="-545" y="1241"/>
      <point x="-392" y="1351"/>
      <point x="-196" y="1436"/>
      <point x="33" y="1486"/>
      <point x="159" y="1486" type="qcurve" smooth="yes"/>
      <point x="283" y="1486"/>
      <point x="495" y="1437"/>
      <point x="663" y="1353"/>
      <point x="783" y="1243"/>
    </contour>
  </outline>
</glyph>
<glyph name="dcomb" format="2">
  <unicode hex="0369"/>
  <anchor x="-518" y="2018" name="_t.uni0367_2"/>
  <outline>
    <contour>
      <point x="-333" y="1306" type="line"/>
      <point x="-218" y="1992" type="line"/>
      <point x="-83" y="1992" type="line"/>
      <point x="-215" y="1202" type="line"/>
      <point x="-329" y="1202" type="line"/>
    </contour>
    <contour>
      <point x="-500" y="1186" type="qcurve" smooth="yes"/>
      <point x="-568" y="1186"/>
      <point x="-658" y="1259"/>
      <point x="-693" y="1385"/>
      <point x="-680" y="1466" type="qcurve" smooth="yes"/>
      <point x="-678" y="1478" type="line" smooth="yes"/>
      <point x="-657" y="1604"/>
      <point x="-510" y="1760"/>
      <point x="-408" y="1760" type="qcurve" smooth="yes"/>
      <point x="-301" y="1760"/>
      <point x="-214" y="1631"/>
      <point x="-225" y="1509" type="qcurve"/>
      <point x="-236" y="1440" type="line"/>
      <point x="-255" y="1358"/>
      <point x="-325" y="1245"/>
      <point x="-429" y="1186"/>
    </contour>
    <contour>
      <point x="-455" y="1296" type="qcurve" smooth="yes"/>
      <point x="-399" y="1296"/>
      <point x="-322" y="1361"/>
      <point x="-297" y="1416" type="qcurve"/>
      <point x="-281" y="1528" type="line"/>
      <point x="-280" y="1589"/>
      <point x="-344" y="1651"/>
      <point x="-397" y="1651" type="qcurve" smooth="yes"/>
      <point x="-457" y="1651"/>
      <point x="-534" y="1555"/>
      <point x="-547" y="1478" type="qcurve" smooth="yes"/>
      <point x="-549" y="1466" type="line" smooth="yes"/>
      <point x="-562" y="1390"/>
      <point x="-516" y="1296"/>
    </contour>
  </outline>
</glyph>
<glyph name="Sigma" format="2">
  <advance width="1413"/>
  <unicode hex="03A3"/>
  <outline>
    <contour>
      <point x="42" y="0" type="line"/>
      <point x="69" y="154" type="line"/>
      <point x="566" y="597" type="line" smooth="yes"/>
      <point x="607" y="633"/>
      <point x="684" y="697"/>
      <point x="753" y="752"/>
      <point x="812" y="797"/>
      <point x="834" y="815" type="qcurve"/>
      <point x="821" y="735" type="line"/>
      <point x="803" y="754"/>
      <point x="738" y="819"/>
      <point x="661" y="902"/>
      <point x="624" y="948" type="qcurve" smooth="yes"/>
      <point x="301" y="1350" type="line"/>
      <point x="323" y="1490" type="line"/>
      <point x="1422" y="1490" type="line"/>
      <point x="1394" y="1323" type="line"/>
      <point x="796" y="1323" type="line" smooth="yes"/>
      <point x="704" y="1323"/>
      <point x="559" y="1326"/>
      <point x="498" y="1331" type="qcurve"/>
      <point x="487" y="1366" type="line"/>
      <point x="509" y="1346"/>
      <point x="576" y="1282"/>
      <point x="661" y="1191"/>
      <point x="708" y="1131" type="qcurve" smooth="yes"/>
      <point x="970" y="800" type="line"/>
      <point x="960" y="733" type="line"/>
      <point x="585" y="396" type="line" smooth="yes"/>
      <point x="515" y="333"/>
      <point x="391" y="231"/>
      <point x="288" y="152"/>
      <point x="247" y="122" type="qcurve"/>
      <point x="269" y="159" type="line"/>
      <point x="340" y="164"/>
      <point x="500" y="167"/>
      <point x="605" y="167" type="qcurve" smooth="yes"/>
      <point x="1213" y="167" type="line"/>
      <point x="1185" y="0" type="line"/>
    </contour>
  </outline>
</glyph>
<glyph name="beta" format="2">
  <advance width="1221"/>
  <unicode hex="03B2"/>
  <outline>
    <contour>
      <point x="-3" y="-418" type="line"/>
      <point x="248" y="1100" type="line" smooth="yes"/>
      <point x="268" y="1221"/>
      <point x="407" y="1406"/>
      <point x="621" y="1510"/>
      <point x="754" y="1510" type="qcurve" smooth="yes"/>
      <point x="881" y="1510"/>
      <point x="1065" y="1411"/>
      <point x="1153" y="1234"/>
      <point x="1134" y="1118" type="qcurve" smooth="yes"/>
      <point x="1116" y="1005"/>
      <point x="984" y="860"/>
      <point x="777" y="785"/>
      <point x="648" y="777" type="qcurve"/>
      <point x="657" y="830" type="line"/>
      <point x="756" y="825"/>
      <point x="927" y="777"/>
      <point x="1047" y="683"/>
      <point x="1101" y="535"/>
      <point x="1083" y="428" type="qcurve" smooth="yes"/>
      <point x="1062" y="298"/>
      <point x="917" y="96"/>
      <point x="697" y="-20"/>
      <point x="562" y="-20" type="qcurve" smooth="yes"/>
      <point x="479" y="-20"/>
      <point x="346" y="33"/>
      <point x="268" y="151"/>
      <point x="265" y="250" type="qcurve"/>
      <point x="287" y="250" type="line"/>
      <point x="177" y="-418" type="line"/>
    </contour>
    <contour>
      <point x="557" y="148" type="qcurve" smooth="yes"/>
      <point x="649" y="148"/>
      <point x="795" y="216"/>
      <point x="890" y="343"/>
      <point x="904" y="429" type="qcurve" smooth="yes"/>
      <point x="926" y="559"/>
      <point x="808" y="709"/>
      <point x="686" y="709" type="qcurve" smooth="yes"/>
      <point x="545" y="709" type="line"/>
      <point x="572" y="872" type="line"/>
      <point x="653" y="872" type="line" smooth="yes"/>
      <point x="732" y="872"/>
      <point x="859" y="929"/>
      <point x="942" y="1037"/>
      <point x="955" y="1111" type="qcurve" smooth="yes"/>
      <point x="974" y="1218"/>
      <point x="853" y="1342"/>
      <point x="734" y="1342" type="qcurve" smooth="yes"/>
      <point x="652" y="1342"/>
      <point x="522" y="1283"/>
      <point x="440" y="1177"/>
      <point x="428" y="1104" type="qcurve" smooth="yes"/>
      <point x="313" y="408" type="line" smooth="yes"/>
      <point x="301" y="336"/>
      <point x="346" y="218"/>
      <point x="463" y="148"/>
    </contour>
  </outline>
</glyph>
<glyph name="phigreek" format="2">
  <advance width="1404"/>
  <unicode hex="03D5"/>
  <outline>
    <contour>
      <point x="517" y="-24" type="line" smooth="yes"/>
      <point x="365" y="-24"/>
      <point x="160" y="120"/>
      <point x="75" y="380"/>
      <point x="103" y="552" type="qcurve" smooth="yes"/>
      <point x="132" y="728"/>
      <point x="303" y="988"/>
      <point x="556" y="1132"/>
      <point x="708" y="1132" type="qcurve" smooth="yes"/>
      <point x="885" y="1132" type="line" smooth="yes"/>
      <point x="1037" y="1132"/>
      <point x="1242" y="989"/>
      <point x="1327" y="730"/>
      <point x="1299" y="556" type="qcurve" smooth="yes"/>
      <point x="1271" y="383"/>
      <point x="1101" y="121"/>
      <point x="847" y="-24"/>
      <point x="694" y="-24" type="qcurve" smooth="yes"/>
    </contour>
    <contour>
      <point x="544" y="137" type="qcurve" smooth="yes"/>
      <point x="721" y="137" type="line" smooth="yes"/>
      <point x="833" y="137"/>
      <point x="996" y="253"/>
      <point x="1098" y="442"/>
      <point x="1116" y="553" type="qcurve" smooth="yes"/>
      <point x="1135" y="664"/>
      <point x="1096" y="855"/>
      <point x="971" y="971"/>
      <point x="859" y="971" type="qcurve" smooth="yes"/>
      <point x="682" y="971" type="line" smooth="yes"/>
      <point x="571" y="971"/>
      <point x="407" y="855"/>
      <point x="305" y="666"/>
      <point x="286" y="554" type="qcurve" smooth="yes"/>
      <point x="267" y="443"/>
      <point x="306" y="253"/>
      <point x="433" y="137"/>
    </contour>
    <contour>
      <point x="452" y="-418" type="line"/>
      <point x="768" y="1491" type="line"/>
      <point x="945" y="1491" type="line"/>
      <point x="629" y="-418" type="line"/>
    </contour>
  </outline>
</glyph>
<glyph name="rhosymbol" format="2">
  <advance width="1298"/>
  <unicode hex="03F1"/>
  <outline>
    <contour>
      <point x="890" y="-474" type="qcurve"/>
      <point x="720" y="-474" type="line"/>
      <point x="729" y="-422"/>
      <point x="678" y="-365"/>
      <point x="574" y="-331"/>
      <point x="504" y="-316" type="qcurve" smooth="yes"/>
      <point x="397" y="-293"/>
      <point x="237" y="-177"/>
      <point x="141" y="15"/>
      <point x="118" y="290"/>
      <point x="148" y="473" type="qcurve" smooth="yes"/>
      <point x="163" y="563" type="line"/>
      <point x="332" y="560" type="line"/>
      <point x="317" y="471" type="line"/>
      <point x="277" y="307"/>
      <point x="287" y="87"/>
      <point x="366" y="-50"/>
      <point x="498" y="-125"/>
      <point x="580" y="-144" type="qcurve" smooth="yes"/>
      <point x="649" y="-160"/>
      <point x="774" y="-194"/>
      <point x="866" y="-258"/>
      <point x="906" y="-375"/>
    </contour>
    <contour>
      <point x="604" y="58" type="qcurve" smooth="yes"/>
      <point x="493" y="58"/>
      <point x="329" y="150"/>
      <point x="222" y="306"/>
      <point x="197" y="401" type="qcurve" smooth="yes"/>
      <point x="190" y="429"/>
      <point x="169" y="477"/>
      <point x="157" y="524"/>
      <point x="161" y="548" type="qcurve" smooth="yes"/>
      <point x="164" y="568" type="line" smooth="yes"/>
      <point x="190" y="738"/>
      <point x="350" y="992"/>
      <point x="593" y="1132"/>
      <point x="743" y="1132" type="qcurve" smooth="yes"/>
      <point x="899" y="1132"/>
      <point x="1091" y="989"/>
      <point x="1164" y="737"/>
      <point x="1140" y="572" type="qcurve" smooth="yes"/>
      <point x="1137" y="551" type="line" smooth="yes"/>
      <point x="1117" y="411"/>
      <point x="973" y="188"/>
      <point x="747" y="58"/>
    </contour>
    <contour>
      <point x="594" y="224" type="qcurve" smooth="yes"/>
      <point x="692" y="224"/>
      <point x="832" y="315"/>
      <point x="916" y="464"/>
      <point x="928" y="551" type="qcurve" smooth="yes"/>
      <point x="931" y="572" type="line" smooth="yes"/>
      <point x="947" y="684"/>
      <point x="919" y="862"/>
      <point x="815" y="966"/>
      <point x="716" y="966" type="qcurve" smooth="yes"/>
      <point x="618" y="966"/>
      <point x="474" y="862"/>
      <point x="386" y="684"/>
      <point x="370" y="572" type="qcurve" smooth="yes"/>
      <point x="367" y="551" type="line" smooth="yes"/>
      <point x="355" y="464"/>
      <point x="388" y="315"/>
      <point x="496" y="224"/>
    </contour>
  </outline>
</glyph>
<glyph name="Sigmareversedlunatesymbol" format="2">
  <advance width="1299"/>
  <unicode hex="03FD"/>
  <outline>
    <contour>
      <point x="66" y="470" type="qcurve"/>
      <point x="284" y="470" type="line"/>
      <point x="281" y="328"/>
      <point x="394" y="155"/>
      <point x="551" y="155" type="qcurve" smooth="yes"/>
      <point x="683" y="155"/>
      <point x="875" y="280"/>
      <point x="996" y="508"/>
      <point x="1020" y="660" type="qcurve" smooth="yes"/>
      <point x="1047" y="828" type="line" smooth="yes"/>
      <point x="1070" y="968"/>
      <point x="1035" y="1198"/>
      <point x="891" y="1335"/>
      <point x="747" y="1335" type="qcurve" smooth="yes"/>
      <point x="596" y="1335"/>
      <point x="423" y="1172"/>
      <point x="375" y="1022" type="qcurve"/>
      <point x="157" y="1022" type="line"/>
      <point x="195" y="1159"/>
      <point x="362" y="1380"/>
      <point x="616" y="1510"/>
      <point x="782" y="1510" type="qcurve" smooth="yes"/>
      <point x="969" y="1510"/>
      <point x="1206" y="1341"/>
      <point x="1296" y="1034"/>
      <point x="1262" y="828" type="qcurve" smooth="yes"/>
      <point x="1235" y="662" type="line" smooth="yes"/>
      <point x="1202" y="456"/>
      <point x="1007" y="149"/>
      <point x="711" y="-20"/>
      <point x="524" y="-20" type="qcurve" smooth="yes"/>
      <point x="359" y="-20"/>
      <point x="150" y="107"/>
      <point x="58" y="329"/>
    </contour>
  </outline>
</glyph>
<glyph name="Efcyr" format="2">
  <advance width="1695"/>
  <unicode hex="0424"/>
  <outline>
    <contour>
      <point x="708" y="107" type="line" smooth="yes"/>
      <point x="505" y="107"/>
      <point x="234" y="263"/>
      <point x="120" y="549"/>
      <point x="152" y="744" type="qcurve" smooth="yes"/>
      <point x="184" y="940"/>
      <point x="392" y="1226"/>
      <point x="715" y="1383"/>
      <point x="919" y="1383" type="qcurve" smooth="yes"/>
      <point x="1049" y="1383" type="line" smooth="yes"/>
      <point x="1254" y="1383"/>
      <point x="1523" y="1227"/>
      <point x="1636" y="942"/>
      <point x="1605" y="749" type="qcurve" smooth="yes"/>
      <point x="1573" y="550"/>
      <point x="1363" y="262"/>
      <point x="1040" y="107"/>
      <point x="838" y="107" type="qcurve" smooth="yes"/>
    </contour>
    <contour>
      <point x="745" y="282" type="qcurve" smooth="yes"/>
      <point x="859" y="282" type="line" smooth="yes"/>
      <point x="1016" y="282"/>
      <point x="1250" y="390"/>
      <point x="1397" y="596"/>
      <point x="1421" y="744" type="qcurve" smooth="yes"/>
      <point x="1446" y="892"/>
      <point x="1369" y="1099"/>
      <point x="1170" y="1208"/>
      <point x="1012" y="1208" type="qcurve" smooth="yes"/>
      <point x="898" y="1208" type="line" smooth="yes"/>
      <point x="744" y="1208"/>
      <point x="508" y="1102"/>
      <point x="360" y="895"/>
      <point x="335" y="743" type="qcurve" smooth="yes"/>
      <point x="311" y="592"/>
      <point x="392" y="386"/>
      <point x="592" y="282"/>
    </contour>
    <contour>
      <point x="645" y="-88" type="line"/>
      <point x="921" y="1578" type="line"/>
      <point x="1111" y="1578" type="line"/>
      <point x="835" y="-88" type="line"/>
    </contour>
  </outline>
</glyph>
<glyph name="Hardcyr" format="2">
  <advance width="1674"/>
  <unicode hex="042A"/>
  <outline>
    <contour>
      <point x="228" y="1330" type="line"/>
      <point x="255" y="1490" type="line"/>
      <point x="711" y="1490" type="line"/>
      <point x="684" y="1330" type="line"/>
    </contour>
    <contour>
      <point x="720" y="902" type="line"/>
      <point x="1125" y="902" type="line" smooth="yes"/>
      <point x="1280" y="902"/>
      <point x="1487" y="794"/>
      <point x="1576" y="595"/>
      <point x="1554" y="460" type="qcurve" smooth="yes"/>
      <point x="1531" y="319"/>
      <point x="1379" y="112"/>
      <point x="1140" y="0"/>
      <point x="985" y="0" type="qcurve" smooth="yes"/>
      <point x="432" y="0" type="line"/>
      <point x="679" y="1490" type="line"/>
      <point x="869" y="1490" type="line"/>
      <point x="649" y="165" type="line"/>
      <point x="1004" y="165" type="line" smooth="yes"/>
      <point x="1100" y="165"/>
      <point x="1252" y="237"/>
      <point x="1351" y="369"/>
      <point x="1366" y="458" type="qcurve" smooth="yes"/>
      <point x="1381" y="545"/>
      <point x="1329" y="669"/>
      <point x="1203" y="735"/>
      <point x="1107" y="735" type="qcurve" smooth="yes"/>
      <point x="693" y="735" type="line"/>
    </contour>
  </outline>
</glyph>
<glyph name="Softcyr" format="2">
  <advance width="1329"/>
  <unicode hex="042C"/>
  <outline>
    <contour>
      <point x="375" y="902" type="line"/>
      <point x="780" y="902" type="line" smooth="yes"/>
      <point x="935" y="902"/>
      <point x="1142" y="794"/>
      <point x="1231" y="595"/>
      <point x="1209" y="460" type="qcurve" smooth="yes"/>
      <point x="1186" y="319"/>
      <point x="1034" y="112"/>
      <point x="795" y="0"/>
      <point x="640" y="0" type="qcurve" smooth="yes"/>
      <point x="87" y="0" type="line"/>
      <point x="334" y="1490" type="line"/>
      <point x="524" y="1490" type="line"/>
      <point x="304" y="165" type="line"/>
      <point x="659" y="165" type="line" smooth="yes"/>
      <point x="755" y="165"/>
      <point x="907" y="237"/>
      <point x="1006" y="369"/>
      <point x="1021" y="458" type="qcurve" smooth="yes"/>
      <point x="1036" y="545"/>
      <point x="984" y="669"/>
      <point x="858" y="735"/>
      <point x="762" y="735" type="qcurve" smooth="yes"/>
      <point x="348" y="735" type="line"/>
    </contour>
  </outline>
</glyph>
<glyph name="efcyr" format="2">
  <advance width="1413"/>
  <unicode hex="0444"/>
  <outline>
    <contour>
      <point x="461" y="-382" type="line"/>
      <point x="771" y="1490" type="line"/>
      <point x="952" y="1490" type="line"/>
      <point x="642" y="-382" type="line"/>
    </contour>
    <contour>
      <point x="520" y="-24" type="line" smooth="yes"/>
      <point x="368" y="-24"/>
      <point x="161" y="120"/>
      <point x="75" y="380"/>
      <point x="103" y="552" type="qcurve" smooth="yes"/>
      <point x="132" y="728"/>
      <point x="305" y="988"/>
      <point x="560" y="1132"/>
      <point x="711" y="1132" type="qcurve" smooth="yes"/>
      <point x="765" y="1132" type="line"/>
      <point x="574" y="-24" type="line"/>
    </contour>
    <contour>
      <point x="547" y="137" type="qcurve" smooth="yes"/>
      <point x="577" y="137" type="line"/>
      <point x="715" y="971" type="line"/>
      <point x="685" y="971" type="line" smooth="yes"/>
      <point x="573" y="971"/>
      <point x="407" y="854"/>
      <point x="305" y="663"/>
      <point x="286" y="552" type="qcurve" smooth="yes"/>
      <point x="268" y="442"/>
      <point x="308" y="252"/>
      <point x="436" y="137"/>
    </contour>
    <contour>
      <point x="701" y="-24" type="qcurve" smooth="yes"/>
      <point x="649" y="-24" type="line"/>
      <point x="840" y="1132" type="line"/>
      <point x="892" y="1132" type="line" smooth="yes"/>
      <point x="1046" y="1132"/>
      <point x="1253" y="987"/>
      <point x="1337" y="725"/>
      <point x="1308" y="551" type="qcurve" smooth="yes"/>
      <point x="1280" y="380"/>
      <point x="1109" y="121"/>
      <point x="855" y="-24"/>
    </contour>
    <contour>
      <point x="728" y="137" type="line" smooth="yes"/>
      <point x="841" y="137"/>
      <point x="1006" y="253"/>
      <point x="1109" y="442"/>
      <point x="1127" y="550" type="qcurve" smooth="yes"/>
      <point x="1146" y="662"/>
      <point x="1106" y="853"/>
      <point x="979" y="971"/>
      <point x="866" y="971" type="qcurve" smooth="yes"/>
      <point x="838" y="971" type="line"/>
      <point x="700" y="137" type="line"/>
    </contour>
  </outline>
</glyph>
<glyph name="eukrcyr" format="2">
  <advance width="1158"/>
  <unicode hex="0454"/>
  <outline>
    <contour>
      <point x="517" y="-24" type="qcurve" smooth="yes"/>
      <point x="360" y="-24"/>
      <point x="156" y="124"/>
      <point x="76" y="384"/>
      <point x="103" y="551" type="qcurve" smooth="yes"/>
      <point x="131" y="721"/>
      <point x="300" y="983"/>
      <point x="553" y="1132"/>
      <point x="706" y="1132" type="qcurve" smooth="yes"/>
      <point x="826" y="1132"/>
      <point x="1003" y="1044"/>
      <point x="1098" y="884"/>
      <point x="1094" y="776" type="qcurve"/>
      <point x="913" y="776" type="line"/>
      <point x="909" y="829"/>
      <point x="855" y="918"/>
      <point x="755" y="971"/>
      <point x="682" y="971" type="qcurve" smooth="yes"/>
      <point x="585" y="971"/>
      <point x="421" y="870"/>
      <point x="308" y="686"/>
      <point x="287" y="560" type="qcurve" smooth="yes"/>
      <point x="266" y="432"/>
      <point x="316" y="241"/>
      <point x="446" y="137"/>
      <point x="545" y="137" type="qcurve" smooth="yes"/>
      <point x="612" y="137"/>
      <point x="727" y="184"/>
      <point x="815" y="272"/>
      <point x="840" y="332" type="qcurve"/>
      <point x="1021" y="332" type="line"/>
      <point x="990" y="230"/>
      <point x="847" y="69"/>
      <point x="642" y="-24"/>
    </contour>
    <contour>
      <point x="247" y="481" type="line"/>
      <point x="273" y="643" type="line"/>
      <point x="790" y="643" type="line"/>
      <point x="764" y="481" type="line"/>
    </contour>
  </outline>
</glyph>
<glyph name="Yusbigiotifiedcyr" format="2">
  <advance width="2345"/>
  <unicode hex="046C"/>
  <outline>
    <contour>
      <point x="664" y="0" type="line"/>
      <point x="724" y="366" type="line" smooth="yes"/>
      <point x="748" y="513"/>
      <point x="892" y="713"/>
      <point x="1120" y="816"/>
      <point x="1270" y="816" type="qcurve" smooth="yes"/>
      <point x="1759" y="816" type="line" smooth="yes"/>
      <point x="1911" y="816"/>
      <point x="2104" y="711"/>
      <point x="2179" y="510"/>
      <point x="2155" y="366" type="qcurve" smooth="yes"/>
      <point x="2094" y="0" type="line"/>
      <point x="1905" y="0" type="line"/>
      <point x="1965" y="368" type="line" smooth="yes"/>
      <point x="1988" y="506"/>
      <point x="1864" y="650"/>
      <point x="1731" y="650" type="qcurve" smooth="yes"/>
      <point x="1243" y="650" type="line" smooth="yes"/>
      <point x="1110" y="650"/>
      <point x="937" y="506"/>
      <point x="914" y="368" type="qcurve" smooth="yes"/>
      <point x="854" y="0" type="line"/>
    </contour>
    <contour>
      <point x="87" y="0" type="line"/>
      <point x="334" y="1490" type="line"/>
      <point x="524" y="1490" type="line"/>
      <point x="277" y="0" type="line"/>
    </contour>
    <contour>
      <point x="340" y="650" type="line"/>
      <point x="367" y="816" type="line"/>
      <point x="1312" y="816" type="line"/>
      <point x="1285" y="650" type="line"/>
    </contour>
    <contour>
      <point x="1285" y="0" type="line"/>
      <point x="1414" y="779" type="line"/>
      <point x="1602" y="779" type="line"/>
      <point x="1473" y="0" type="line"/>
    </contour>
    <contour>
      <point x="1410" y="621" type="line"/>
      <point x="1018" y="1490" type="line"/>
      <point x="1240" y="1490" type="line"/>
      <point x="1558" y="697" type="line"/>
      <point x="1517" y="621" type="line"/>
    </contour>
    <contour>
      <point x="1447" y="621" type="line"/>
      <point x="1440" y="705" type="line"/>
      <point x="2018" y="1490" type="line"/>
      <point x="2234" y="1490" type="line"/>
      <point x="1556" y="621" type="line"/>
    </contour>
    <contour>
      <point x="1133" y="1326" type="line"/>
      <point x="1160" y="1490" type="line"/>
      <point x="2078" y="1490" type="line"/>
      <point x="2051" y="1326" type="line"/>
    </contour>
  </outline>
</glyph>
<glyph name="Ksicyr" format="2">
  <advance width="1119"/>
  <unicode hex="046E"/>
  <outline>
    <contour>
      <point x="338" y="1490" type="line"/>
      <point x="638" y="1490" type="line" smooth="yes"/>
      <point x="779" y="1490"/>
      <point x="981" y="1396"/>
      <point x="1077" y="1223"/>
      <point x="1056" y="1104" type="qcurve" smooth="yes"/>
      <point x="1036" y="989"/>
      <point x="883" y="816"/>
      <point x="644" y="721"/>
      <point x="496" y="721" type="qcurve" smooth="yes"/>
      <point x="349" y="721" type="line"/>
      <point x="369" y="847" type="line"/>
      <point x="514" y="847" type="line" smooth="yes"/>
      <point x="672" y="847"/>
      <point x="827" y="987"/>
      <point x="844" y="1086" type="qcurve" smooth="yes"/>
      <point x="864" y="1198"/>
      <point x="748" y="1323"/>
      <point x="611" y="1323" type="qcurve" smooth="yes"/>
      <point x="309" y="1323" type="line"/>
    </contour>
    <contour>
      <point x="363" y="799" type="line"/>
      <point x="507" y="799" type="line" smooth="yes"/>
      <point x="758" y="799"/>
      <point x="996" y="599"/>
      <point x="966" y="410" type="qcurve" smooth="yes"/>
      <point x="945" y="275"/>
      <point x="789" y="82"/>
      <point x="555" y="-20"/>
      <point x="415" y="-20" type="qcurve" smooth="yes"/>
      <point x="364" y="-20" type="line" smooth="yes"/>
      <point x="291" y="-20"/>
      <point x="215" y="-80"/>
      <point x="206" y="-133" type="qcurve" smooth="yes"/>
      <point x="198" y="-183"/>
      <point x="238" y="-253"/>
      <point x="304" y="-299"/>
      <point x="334" y="-314" type="qcurve"/>
      <point x="231" y="-448" type="line"/>
      <point x="168" y="-420"/>
      <point x="58" y="-331"/>
      <point x="0" y="-201"/>
      <point x="13" y="-114" type="qcurve" smooth="yes"/>
      <point x="34" y="22"/>
      <point x="247" y="147"/>
      <point x="399" y="147" type="qcurve" smooth="yes"/>
      <point x="441" y="147" type="line" smooth="yes"/>
      <point x="524" y="147"/>
      <point x="657" y="210"/>
      <point x="746" y="330"/>
      <point x="759" y="416" type="qcurve" smooth="yes"/>
      <point x="779" y="545"/>
      <point x="638" y="680"/>
      <point x="485" y="680" type="qcurve" smooth="yes"/>
      <point x="342" y="680" type="line"/>
    </contour>
    <contour>
      <point x="655" y="1909" type="line"/>
      <point x="799" y="1737" type="line"/>
      <point x="1004" y="1909" type="line"/>
      <point x="1151" y="1909" type="line"/>
      <point x="1151" y="1897" type="line"/>
      <point x="833" y="1624" type="line"/>
      <point x="729" y="1624" type="line"/>
      <point x="505" y="1897" type="line"/>
      <point x="507" y="1909" type="line"/>
    </contour>
  </outline>
</glyph>
<glyph name="Koppacyr" format="2">
  <advance width="1453"/>
  <unicode hex="0480"/>
  <anchor x="598" y="0" name="m.uni0326"/>
  <anchor x="904" y="1490" name="m.uni030F_1"/>
  <outline>
    <contour>
      <point x="647" y="137" type="qcurve" smooth="yes"/>
      <point x="526" y="137"/>
      <point x="326" y="232"/>
      <point x="190" y="412"/>
      <point x="138" y="666"/>
      <point x="165" y="826" type="qcurve" smooth="yes"/>
      <point x="201" y="1039"/>
      <point x="415" y="1348"/>
      <point x="728" y="1514"/>
      <point x="909" y="1514" type="qcurve" smooth="yes"/>
      <point x="1017" y="1514"/>
      <point x="1199" y="1454"/>
      <point x="1334" y="1339"/>
      <point x="1409" y="1172"/>
      <point x="1410" y="1065" type="qcurve"/>
      <point x="1219" y="1065" type="line"/>
      <point x="1215" y="1154"/>
      <point x="1123" y="1277"/>
      <point x="973" y="1340"/>
      <point x="881" y="1340" type="qcurve" smooth="yes"/>
      <point x="755" y="1340"/>
      <point x="534" y="1221"/>
      <point x="379" y="993"/>
      <point x="351" y="827" type="qcurve" smooth="yes"/>
      <point x="323" y="659"/>
      <point x="403" y="429"/>
      <point x="586" y="311"/>
      <point x="711" y="311" type="qcurve" smooth="yes"/>
      <point x="802" y="311"/>
      <point x="972" y="374"/>
      <point x="1105" y="495"/>
      <point x="1139" y="583" type="qcurve"/>
      <point x="1215" y="583" type="line"/>
      <point x="1200" y="491"/>
      <point x="1099" y="330"/>
      <point x="945" y="207"/>
      <point x="753" y="137"/>
    </contour>
    <contour>
      <point x="1043" y="0" type="line"/>
      <point x="1148" y="583" type="line"/>
      <point x="1329" y="583" type="line"/>
      <point x="1233" y="0" type="line"/>
    </contour>
  </outline>
</glyph>
<glyph name="palatcombcyr" format="2">
  <unicode hex="0484"/>
  <outline>
    <contour>
      <point x="-770" y="1438" type="line"/>
      <point x="-730" y="1438" type="line" smooth="yes"/>
      <point x="-649" y="1438"/>
      <point x="-514" y="1474"/>
      <point x="-396" y="1520"/>
      <point x="-284" y="1556"/>
      <point x="-225" y="1556" type="qcurve" smooth="yes"/>
      <point x="-110" y="1556"/>
      <point x="-3" y="1448"/>
      <point x="-23" y="1342" type="qcurve" smooth="yes"/>
      <point x="-30" y="1304" type="line"/>
      <point x="-167" y="1304" type="line"/>
      <point x="-164" y="1320" type="line" smooth="yes"/>
      <point x="-154" y="1372"/>
      <point x="-204" y="1422"/>
      <point x="-253" y="1422" type="qcurve" smooth="yes"/>
      <point x="-296" y="1422"/>
      <point x="-397" y="1386"/>
      <point x="-517" y="1340"/>
      <point x="-662" y="1304"/>
      <point x="-750" y="1304" type="qcurve" smooth="yes"/>
      <point x="-794" y="1304" type="line"/>
    </contour>
  </outline>
</glyph>
<glyph name="dasiacombcyr" format="2">
  <unicode hex="0485"/>
  <outline>
    <contour>
      <point x="-381" y="1301" type="line"/>
      <point x="-512" y="1502" type="line"/>
      <point x="-492" y="1626" type="line"/>
      <point x="-301" y="1626" type="line"/>
      <point x="-328" y="1484" type="line"/>
      <point x="-287" y="1369" type="line"/>
    </contour>
  </outline>
</glyph>
<glyph name="semisoftcyr" format="2">
  <advance width="1262"/>
  <unicode hex="048D"/>
  <outline>
    <contour>
      <point x="89" y="972" type="line"/>
      <point x="113" y="1118" type="line"/>
      <point x="888" y="1118" type="line"/>
      <point x="864" y="972" type="line"/>
    </contour>
    <contour>
      <point x="367" y="1118" type="line"/>
      <point x="411" y="1384" type="line"/>
      <point x="581" y="1384" type="line"/>
      <point x="537" y="1118" type="line"/>
    </contour>
    <contour>
      <point x="454" y="717" type="line"/>
      <point x="775" y="717" type="line" smooth="yes"/>
      <point x="908" y="717"/>
      <point x="1075" y="625"/>
      <point x="1142" y="465"/>
      <point x="1125" y="362" type="qcurve" smooth="yes"/>
      <point x="1108" y="260"/>
      <point x="985" y="96"/>
      <point x="787" y="0"/>
      <point x="656" y="0" type="qcurve" smooth="yes"/>
      <point x="183" y="0" type="line"/>
      <point x="368" y="1118" type="line"/>
      <point x="548" y="1118" type="line"/>
      <point x="390" y="166" type="line"/>
      <point x="683" y="166" type="line" smooth="yes"/>
      <point x="785" y="166"/>
      <point x="929" y="273"/>
      <point x="942" y="354" type="qcurve" smooth="yes"/>
      <point x="956" y="440"/>
      <point x="848" y="550"/>
      <point x="747" y="550" type="qcurve" smooth="yes"/>
      <point x="425" y="550" type="line"/>
    </contour>
  </outline>
</glyph>
<glyph name="Geupcyr" format="2">
  <advance width="1185"/>
  <unicode hex="0490"/>
  <anchor x="844" y="1490" name="m.uni030F_1"/>
  <outline>
    <contour>
      <point x="1038" y="1330" type="line"/>
      <point x="1115" y="1792" type="line"/>
      <point x="1287" y="1792" type="line"/>
      <point x="1210" y="1330" type="line"/>
    </contour>
    <contour>
      <point x="1241" y="1490" type="line"/>
      <point x="1212" y="1323" type="line"/>
      <point x="496" y="1323" type="line"/>
      <point x="277" y="0" type="line"/>
      <point x="87" y="0" type="line"/>
      <point x="334" y="1490" type="line"/>
    </contour>
  </outline>
</glyph>
<glyph name="geupcyr" format="2">
  <advance width="937"/>
  <unicode hex="0491"/>
  <anchor x="691" y="1180" name="m.uni030F_1"/>
  <outline>
    <contour>
      <point x="768" y="1118" type="line"/>
      <point x="813" y="1390" type="line"/>
      <point x="983" y="1390" type="line"/>
      <point x="938" y="1118" type="line"/>
    </contour>
    <contour>
      <point x="945" y="1118" type="line"/>
      <point x="918" y="952" type="line"/>
      <point x="404" y="952" type="line"/>
      <point x="246" y="0" type="line"/>
      <point x="66" y="0" type="line"/>
      <point x="251" y="1118" type="line"/>
    </contour>
  </outline>
</glyph>
<glyph name="tetsecyr" format="2">
  <advance width="1437"/>
  <unicode hex="04B5"/>
  <outline>
    <contour>
      <point x="895" y="1118" type="line"/>
      <point x="869" y="958" type="line"/>
      <point x="161" y="958" type="line"/>
      <point x="187" y="1118" type="line"/>
    </contour>
    <contour>
      <point x="268" y="0" type="line"/>
      <point x="453" y="1118" type="line"/>
      <point x="633" y="1118" type="line"/>
      <point x="475" y="166" type="line"/>
      <point x="1002" y="166" type="line"/>
      <point x="1160" y="1118" type="line"/>
      <point x="1341" y="1118" type="line"/>
      <point x="1156" y="0" type="line"/>
    </contour>
    <contour>
      <point x="1069" y="-320" type="line"/>
      <point x="1122" y="0" type="line"/>
      <point x="1047" y="0" type="line"/>
      <point x="1074" y="166" type="line"/>
      <point x="1330" y="166" type="line"/>
      <point x="1249" y="-320" type="line"/>
    </contour>
  </outline>
</glyph>
<glyph name="omod" format="2">
  <advance width="829"/>
  <unicode hex="1D52"/>
  <outline>
    <contour>
      <point x="444" y="730" type="qcurve" smooth="yes"/>
      <point x="340" y="730"/>
      <point x="198" y="827"/>
      <point x="139" y="1002"/>
      <point x="158" y="1119" type="qcurve" smooth="yes"/>
      <point x="177" y="1233"/>
      <point x="291" y="1404"/>
      <point x="464" y="1498"/>
      <point x="569" y="1498" type="qcurve" smooth="yes"/>
      <point x="679" y="1498"/>
      <point x="819" y="1397"/>
      <point x="876" y="1225"/>
      <point x="859" y="1119" type="qcurve" smooth="yes"/>
      <point x="840" y="1001"/>
      <point x="724" y="826"/>
      <point x="550" y="730"/>
    </contour>
    <contour>
      <point x="458" y="856" type="qcurve" smooth="yes"/>
      <point x="522" y="856"/>
      <point x="621" y="927"/>
      <point x="685" y="1045"/>
      <point x="696" y="1116" type="qcurve" smooth="yes"/>
      <point x="708" y="1187"/>
      <point x="685" y="1304"/>
      <point x="613" y="1374"/>
      <point x="551" y="1374" type="qcurve" smooth="yes"/>
      <point x="491" y="1374"/>
      <point x="393" y="1303"/>
      <point x="329" y="1185"/>
      <point x="318" y="1114" type="qcurve" smooth="yes"/>
      <point x="306" y="1037"/>
      <point x="331" y="921"/>
      <point x="401" y="856"/>
    </contour>
  </outline>
</glyph>
<glyph name="thetamod" format="2">
  <advance width="925"/>
  <unicode hex="1DBF"/>
  <outline>
    <contour>
      <point x="475" y="634" type="qcurve" smooth="yes"/>
      <point x="374" y="634"/>
      <point x="222" y="739"/>
      <point x="157" y="957"/>
      <point x="186" y="1126" type="qcurve" smooth="yes"/>
      <point x="209" y="1260" type="line" smooth="yes"/>
      <point x="238" y="1429"/>
      <point x="373" y="1642"/>
      <point x="556" y="1742"/>
      <point x="657" y="1742" type="qcurve" smooth="yes"/>
      <point x="761" y="1742"/>
      <point x="912" y="1641"/>
      <point x="975" y="1428"/>
      <point x="947" y="1260" type="qcurve" smooth="yes"/>
      <point x="925" y="1126" type="line" smooth="yes"/>
      <point x="898" y="959"/>
      <point x="765" y="740"/>
      <point x="580" y="634"/>
    </contour>
    <contour>
      <point x="501" y="791" type="qcurve" smooth="yes"/>
      <point x="599" y="791"/>
      <point x="710" y="939"/>
      <point x="736" y="1102" type="qcurve" smooth="yes"/>
      <point x="765" y="1282" type="line" smooth="yes"/>
      <point x="791" y="1445"/>
      <point x="728" y="1589"/>
      <point x="634" y="1589" type="qcurve" smooth="yes"/>
      <point x="541" y="1589"/>
      <point x="427" y="1449"/>
      <point x="399" y="1282" type="qcurve" smooth="yes"/>
      <point x="369" y="1102" type="line" smooth="yes"/>
      <point x="342" y="940"/>
      <point x="408" y="791"/>
    </contour>
    <contour>
      <point x="829" y="1113" type="line"/>
      <point x="250" y="1113" type="line"/>
      <point x="274" y="1269" type="line"/>
      <point x="851" y="1269" type="line"/>
    </contour>
  </outline>
</glyph>
<glyph name="urabovecomb" format="2">
  <unicode hex="1DD1"/>
  <outline>
    <contour>
      <point x="-345" y="1244" type="qcurve" smooth="yes"/>
      <point x="-316" y="1244"/>
      <point x="-279" y="1281"/>
      <point x="-274" y="1312" type="qcurve" smooth="yes"/>
      <point x="-269" y="1339"/>
      <point x="-293" y="1398"/>
      <point x="-343" y="1401" type="qcurve"/>
      <point x="-327" y="1489" type="line"/>
      <point x="-281" y="1490"/>
      <point x="-204" y="1449"/>
      <point x="-162" y="1372"/>
      <point x="-170" y="1317" type="qcurve" smooth="yes"/>
      <point x="-180" y="1250"/>
      <point x="-280" y="1149"/>
      <point x="-366" y="1149" type="qcurve" smooth="yes"/>
      <point x="-437" y="1149"/>
      <point x="-504" y="1223"/>
      <point x="-518" y="1302" type="qcurve" smooth="yes"/>
      <point x="-525" y="1340"/>
      <point x="-549" y="1379"/>
      <point x="-577" y="1379" type="qcurve" smooth="yes"/>
      <point x="-606" y="1379"/>
      <point x="-644" y="1352"/>
      <point x="-650" y="1321" type="qcurve" smooth="yes"/>
      <point x="-658" y="1279"/>
      <point x="-616" y="1245"/>
      <point x="-589" y="1242" type="qcurve"/>
      <point x="-606" y="1153" type="line"/>
      <point x="-676" y="1154"/>
      <point x="-764" y="1246"/>
      <point x="-754" y="1317" type="qcurve" smooth="yes"/>
      <point x="-743" y="1388"/>
      <point x="-636" y="1475"/>
      <point x="-563" y="1475" type="qcurve" smooth="yes"/>
      <point x="-490" y="1475"/>
      <point x="-423" y="1394"/>
      <point x="-412" y="1332" type="qcurve" smooth="yes"/>
      <point x="-403" y="1283"/>
      <point x="-373" y="1244"/>
    </contour>
  </outline>
</glyph>
<glyph name="aaboveflatcomb" format="2">
  <unicode hex="1DD3"/>
  <outline>
    <contour>
      <point x="-520" y="1390" type="qcurve"/>
      <point x="-408" y="1390" type="line"/>
      <point x="-424" y="1290"/>
      <point x="-543" y="1192"/>
      <point x="-639" y="1192" type="qcurve" smooth="yes"/>
      <point x="-706" y="1192"/>
      <point x="-798" y="1241"/>
      <point x="-839" y="1330"/>
      <point x="-830" y="1390" type="qcurve"/>
      <point x="-701" y="1390" type="line"/>
      <point x="-707" y="1350"/>
      <point x="-667" y="1301"/>
      <point x="-621" y="1301" type="qcurve" smooth="yes"/>
      <point x="-579" y="1301"/>
      <point x="-527" y="1344"/>
    </contour>
    <contour>
      <point x="-206" y="1390" type="qcurve"/>
      <point x="-70" y="1390" type="line"/>
      <point x="-86" y="1290"/>
      <point x="-227" y="1192"/>
      <point x="-325" y="1192" type="qcurve" smooth="yes"/>
      <point x="-390" y="1192"/>
      <point x="-479" y="1240"/>
      <point x="-518" y="1329"/>
      <point x="-509" y="1390" type="qcurve"/>
      <point x="-396" y="1390" type="line"/>
      <point x="-403" y="1347"/>
      <point x="-351" y="1301"/>
      <point x="-307" y="1301" type="qcurve" smooth="yes"/>
      <point x="-263" y="1301"/>
      <point x="-213" y="1344"/>
    </contour>
  </outline>
</glyph>
<glyph name="Rcomb" format="2">
  <unicode hex="1DE2"/>
  <outline>
    <contour>
      <point x="-409" y="1419" type="qcurve" smooth="yes"/>
      <point x="-596" y="1419" type="line"/>
      <point x="-578" y="1528" type="line"/>
      <point x="-419" y="1528" type="line" smooth="yes"/>
      <point x="-378" y="1528"/>
      <point x="-325" y="1577"/>
      <point x="-319" y="1614" type="qcurve" smooth="yes"/>
      <point x="-313" y="1651"/>
      <point x="-357" y="1688"/>
      <point x="-394" y="1688" type="qcurve" smooth="yes"/>
      <point x="-524" y="1688" type="line"/>
      <point x="-604" y="1202" type="line"/>
      <point x="-736" y="1202" type="line"/>
      <point x="-638" y="1798" type="line"/>
      <point x="-373" y="1798" type="line" smooth="yes"/>
      <point x="-266" y="1798"/>
      <point x="-169" y="1702"/>
      <point x="-182" y="1622" type="qcurve" smooth="yes"/>
      <point x="-191" y="1565"/>
      <point x="-279" y="1480"/>
      <point x="-358" y="1459" type="qcurve" smooth="yes"/>
      <point x="-366" y="1457"/>
      <point x="-359" y="1430"/>
      <point x="-373" y="1427" type="qcurve" smooth="yes"/>
      <point x="-390" y="1423"/>
      <point x="-397" y="1419"/>
    </contour>
    <contour>
      <point x="-450" y="1419" type="qcurve"/>
      <point x="-387" y="1502" type="line"/>
      <point x="-318" y="1502"/>
      <point x="-243" y="1463"/>
      <point x="-218" y="1394"/>
      <point x="-226" y="1348" type="qcurve" smooth="yes"/>
      <point x="-234" y="1299" type="line"/>
      <point x="-236" y="1283"/>
      <point x="-238" y="1248"/>
      <point x="-234" y="1219"/>
      <point x="-229" y="1210" type="qcurve"/>
      <point x="-229" y="1202" type="line"/>
      <point x="-365" y="1202" type="line"/>
      <point x="-378" y="1216"/>
      <point x="-374" y="1283"/>
      <point x="-371" y="1299" type="qcurve" smooth="yes"/>
      <point x="-362" y="1348" type="line" smooth="yes"/>
      <point x="-355" y="1385"/>
      <point x="-390" y="1419"/>
    </contour>
  </outline>
</glyph>
<glyph name="ldoublemiddletildecomb" format="2">
  <unicode hex="1DEC"/>
  <outline>
    <contour>
      <point x="-268" y="1747" type="qcurve"/>
      <point x="-214" y="1728" type="line"/>
      <point x="-223" y="1680"/>
      <point x="-296" y="1612"/>
      <point x="-342" y="1612" type="qcurve" smooth="yes"/>
      <point x="-377" y="1612"/>
      <point x="-415" y="1635"/>
      <point x="-448" y="1658"/>
      <point x="-476" y="1658" type="qcurve" smooth="yes"/>
      <point x="-497" y="1658"/>
      <point x="-535" y="1625"/>
      <point x="-540" y="1602" type="qcurve"/>
      <point x="-594" y="1619" type="line"/>
      <point x="-585" y="1663"/>
      <point x="-513" y="1737"/>
      <point x="-466" y="1737" type="qcurve" smooth="yes"/>
      <point x="-438" y="1737"/>
      <point x="-397" y="1713"/>
      <point x="-357" y="1689"/>
      <point x="-331" y="1689" type="qcurve" smooth="yes"/>
      <point x="-310" y="1689"/>
      <point x="-272" y="1722"/>
    </contour>
    <contour>
      <point x="-294" y="1594" type="qcurve"/>
      <point x="-240" y="1580" type="line"/>
      <point x="-247" y="1534"/>
      <point x="-320" y="1463"/>
      <point x="-368" y="1463" type="qcurve" smooth="yes"/>
      <point x="-403" y="1463"/>
      <point x="-441" y="1486"/>
      <point x="-474" y="1509"/>
      <point x="-503" y="1509" type="qcurve" smooth="yes"/>
      <point x="-523" y="1509"/>
      <point x="-560" y="1473"/>
      <point x="-562" y="1453" type="qcurve"/>
      <point x="-616" y="1466" type="line"/>
      <point x="-610" y="1512"/>
      <point x="-540" y="1586"/>
      <point x="-492" y="1586" type="qcurve" smooth="yes"/>
      <point x="-464" y="1586"/>
      <point x="-422" y="1562"/>
      <point x="-381" y="1538"/>
      <point x="-355" y="1538" type="qcurve" smooth="yes"/>
      <point x="-335" y="1538"/>
      <point x="-299" y="1572"/>
    </contour>
    <contour>
      <point x="-415" y="1992" type="line"/>
      <point x="-283" y="1992" type="line"/>
      <point x="-413" y="1202" type="line"/>
      <point x="-545" y="1202" type="line"/>
    </contour>
  </outline>
</glyph>
<glyph name="pcomb" format="2">
  <unicode hex="1DEE"/>
  <outline>
    <contour>
      <point x="-833" y="1644" type="line"/>
      <point x="-948" y="958" type="line"/>
      <point x="-1083" y="958" type="line"/>
      <point x="-951" y="1748" type="line"/>
      <point x="-837" y="1748" type="line"/>
    </contour>
    <contour>
      <point x="-666" y="1764" type="qcurve" smooth="yes"/>
      <point x="-598" y="1764"/>
      <point x="-508" y="1692"/>
      <point x="-472" y="1565"/>
      <point x="-486" y="1484" type="qcurve" smooth="yes"/>
      <point x="-488" y="1472" type="line" smooth="yes"/>
      <point x="-509" y="1346"/>
      <point x="-656" y="1190"/>
      <point x="-758" y="1190" type="qcurve" smooth="yes"/>
      <point x="-865" y="1190"/>
      <point x="-952" y="1319"/>
      <point x="-941" y="1441" type="qcurve"/>
      <point x="-930" y="1510" type="line"/>
      <point x="-910" y="1592"/>
      <point x="-841" y="1705"/>
      <point x="-737" y="1764"/>
    </contour>
    <contour>
      <point x="-711" y="1654" type="qcurve" smooth="yes"/>
      <point x="-766" y="1654"/>
      <point x="-844" y="1589"/>
      <point x="-869" y="1534" type="qcurve"/>
      <point x="-885" y="1422" type="line"/>
      <point x="-886" y="1361"/>
      <point x="-822" y="1299"/>
      <point x="-769" y="1299" type="qcurve" smooth="yes"/>
      <point x="-709" y="1299"/>
      <point x="-632" y="1396"/>
      <point x="-619" y="1472" type="qcurve" smooth="yes"/>
      <point x="-617" y="1484" type="line" smooth="yes"/>
      <point x="-604" y="1561"/>
      <point x="-650" y="1654"/>
    </contour>
  </outline>
</glyph>
<glyph name="lenisacute" format="2">
  <advance width="868"/>
  <unicode hex="1FCE"/>
  <outline>
    <contour>
      <point x="232" y="1255" type="qcurve" smooth="yes"/>
      <point x="219" y="1255" type="line"/>
      <point x="231" y="1327" type="line"/>
      <point x="244" y="1327" type="line" smooth="yes"/>
      <point x="295" y="1327"/>
      <point x="352" y="1363"/>
      <point x="358" y="1399" type="qcurve" smooth="yes"/>
      <point x="363" y="1430"/>
      <point x="317" y="1461"/>
      <point x="266" y="1461" type="qcurve" smooth="yes"/>
      <point x="229" y="1461" type="line"/>
      <point x="247" y="1568" type="line"/>
      <point x="284" y="1568" type="line" smooth="yes"/>
      <point x="403" y="1568"/>
      <point x="508" y="1492"/>
      <point x="495" y="1415" type="qcurve" smooth="yes"/>
      <point x="482" y="1335"/>
      <point x="351" y="1255"/>
    </contour>
    <contour>
      <point x="593" y="1264" type="line"/>
      <point x="676" y="1558" type="line"/>
      <point x="869" y="1558" type="line"/>
      <point x="718" y="1264" type="line"/>
    </contour>
  </outline>
</glyph>
<glyph name="acute-gr" format="2">
  <advance width="554"/>
  <unicode hex="1FFD"/>
  <outline>
    <contour>
      <point x="279" y="1264" type="line"/>
      <point x="362" y="1558" type="line"/>
      <point x="555" y="1558" type="line"/>
      <point x="404" y="1264" type="line"/>
    </contour>
  </outline>
</glyph>
<glyph name="charactertie" format="2">
  <advance width="1673"/>
  <unicode hex="2040"/>
  <outline>
    <contour>
      <point x="1610" y="1184" type="line"/>
      <point x="1518" y="1249"/>
      <point x="1318" y="1336"/>
      <point x="1097" y="1379"/>
      <point x="972" y="1379" type="qcurve" smooth="yes"/>
      <point x="846" y="1379"/>
      <point x="614" y="1338"/>
      <point x="396" y="1252"/>
      <point x="290" y="1186" type="qcurve"/>
      <point x="192" y="1264" type="line"/>
      <point x="294" y="1358"/>
      <point x="549" y="1485"/>
      <point x="842" y="1550"/>
      <point x="1000" y="1550" type="qcurve" smooth="yes"/>
      <point x="1175" y="1550"/>
      <point x="1456" y="1483"/>
      <point x="1660" y="1355"/>
      <point x="1717" y="1264" type="qcurve"/>
    </contour>
  </outline>
</glyph>
<glyph name="blackwardsbulletleft" format="2">
  <advance width="1213"/>
  <unicode hex="204C"/>
  <outline>
    <contour>
      <point x="542" y="168" type="line" smooth="yes"/>
      <point x="399" y="168"/>
      <point x="209" y="268"/>
      <point x="130" y="458"/>
      <point x="152" y="594" type="qcurve" smooth="yes"/>
      <point x="175" y="730"/>
      <point x="318" y="919"/>
      <point x="541" y="1018"/>
      <point x="683" y="1018" type="qcurve" smooth="yes"/>
      <point x="1123" y="1018" type="line"/>
      <point x="1096" y="858" type="line"/>
      <point x="740" y="858" type="line"/>
      <point x="652" y="328" type="line"/>
      <point x="1008" y="328" type="line"/>
      <point x="982" y="168" type="line"/>
    </contour>
    <contour>
      <point x="806" y="168" type="line"/>
      <point x="947" y="1018" type="line"/>
      <point x="1133" y="1018" type="line"/>
      <point x="992" y="168" type="line"/>
    </contour>
  </outline>
</glyph>
<glyph name="blackwardsbulletright" format="2">
  <advance width="1212"/>
  <unicode hex="204D"/>
  <outline>
    <contour>
      <point x="542" y="168" type="qcurve" smooth="yes"/>
      <point x="101" y="168" type="line"/>
      <point x="127" y="328" type="line"/>
      <point x="484" y="328" type="line"/>
      <point x="572" y="858" type="line"/>
      <point x="215" y="858" type="line"/>
      <point x="242" y="1018" type="line"/>
      <point x="683" y="1018" type="line" smooth="yes"/>
      <point x="896" y="1018"/>
      <point x="1106" y="797"/>
      <point x="1071" y="592" type="qcurve" smooth="yes"/>
      <point x="1049" y="459"/>
      <point x="908" y="269"/>
      <point x="686" y="168"/>
    </contour>
    <contour>
      <point x="278" y="168" type="line"/>
      <point x="91" y="168" type="line"/>
      <point x="232" y="1018" type="line"/>
      <point x="419" y="1018" type="line"/>
    </contour>
  </outline>
</glyph>
<glyph name="invertedundertie" format="2">
  <advance width="1673"/>
  <unicode hex="2054"/>
  <outline>
    <contour>
      <point x="726" y="-116" type="qcurve" smooth="yes"/>
      <point x="927" y="-116"/>
      <point x="1211" y="-197"/>
      <point x="1394" y="-328"/>
      <point x="1441" y="-403" type="qcurve"/>
      <point x="1334" y="-483" type="line"/>
      <point x="1238" y="-416"/>
      <point x="926" y="-316"/>
      <point x="690" y="-316" type="qcurve" smooth="yes"/>
      <point x="450" y="-316"/>
      <point x="126" y="-412"/>
      <point x="14" y="-481" type="qcurve"/>
      <point x="-84" y="-403" type="line"/>
      <point x="5" y="-322"/>
      <point x="228" y="-192"/>
      <point x="526" y="-116"/>
    </contour>
  </outline>
</glyph>
<glyph name="dottedcross" format="2">
  <advance width="1124"/>
  <unicode hex="205C"/>
  <outline>
    <contour>
      <point x="-14" y="475" type="line"/>
      <point x="15" y="641" type="line"/>
      <point x="1136" y="641" type="line"/>
      <point x="1109" y="475" type="line"/>
    </contour>
    <contour>
      <point x="384" y="0" type="line"/>
      <point x="570" y="1118" type="line"/>
      <point x="740" y="1118" type="line"/>
      <point x="554" y="0" type="line"/>
    </contour>
    <contour>
      <point x="857" y="79" type="qcurve" smooth="yes"/>
      <point x="804" y="79"/>
      <point x="749" y="146"/>
      <point x="757" y="193" type="qcurve" smooth="yes"/>
      <point x="765" y="240"/>
      <point x="843" y="304"/>
      <point x="894" y="304" type="qcurve" smooth="yes"/>
      <point x="947" y="304"/>
      <point x="1002" y="237"/>
      <point x="994" y="190" type="qcurve" smooth="yes"/>
      <point x="986" y="143"/>
      <point x="908" y="79"/>
    </contour>
    <contour>
      <point x="108" y="79" type="qcurve" smooth="yes"/>
      <point x="56" y="79"/>
      <point x="-1" y="143"/>
      <point x="6" y="190" type="qcurve" smooth="yes"/>
      <point x="13" y="237"/>
      <point x="91" y="304"/>
      <point x="145" y="304" type="qcurve" smooth="yes"/>
      <point x="195" y="304"/>
      <point x="253" y="240"/>
      <point x="245" y="193" type="qcurve" smooth="yes"/>
      <point x="238" y="146"/>
      <point x="161" y="79"/>
    </contour>
    <contour>
      <point x="228" y="812" type="qcurve" smooth="yes"/>
      <point x="179" y="812"/>
      <point x="121" y="876"/>
      <point x="128" y="924" type="qcurve" smooth="yes"/>
      <point x="135" y="972"/>
      <point x="213" y="1039"/>
      <point x="265" y="1039" type="qcurve" smooth="yes"/>
      <point x="318" y="1039"/>
      <point x="375" y="974"/>
      <point x="367" y="927" type="qcurve" smooth="yes"/>
      <point x="359" y="876"/>
      <point x="278" y="812"/>
    </contour>
    <contour>
      <point x="979" y="812" type="qcurve" smooth="yes"/>
      <point x="927" y="812"/>
      <point x="871" y="879"/>
      <point x="879" y="927" type="qcurve" smooth="yes"/>
      <point x="887" y="975"/>
      <point x="966" y="1039"/>
      <point x="1016" y="1039" type="qcurve" smooth="yes"/>
      <point x="1066" y="1039"/>
      <point x="1124" y="976"/>
      <point x="1117" y="929" type="qcurve" smooth="yes"/>
      <point x="1110" y="877"/>
      <point x="1029" y="812"/>
    </contour>
  </outline>
</glyph>
<glyph name="tugrik" format="2">
  <advance width="1324"/>
  <unicode hex="20AE"/>
  <anchor x="687" y="0" name="m.uni0326"/>
  <anchor x="936" y="1490" name="m.uni030F_1"/>
  <anchor x="675" y="0" name="m.uni0327_3"/>
  <outline>
    <contour>
      <point x="1100" y="1086" type="line"/>
      <point x="1074" y="930" type="line"/>
      <point x="318" y="652" type="line"/>
      <point x="344" y="800" type="line"/>
    </contour>
    <contour>
      <point x="1050" y="780" type="line"/>
      <point x="1024" y="626" type="line"/>
      <point x="268" y="346" type="line"/>
      <point x="290" y="494" type="line"/>
    </contour>
    <contour>
      <point x="226" y="1323" type="line"/>
      <point x="254" y="1490" type="line"/>
      <point x="1380" y="1490" type="line"/>
      <point x="1352" y="1323" type="line"/>
      <point x="885" y="1323" type="line"/>
      <point x="666" y="0" type="line"/>
      <point x="476" y="0" type="line"/>
      <point x="695" y="1323" type="line"/>
    </contour>
  </outline>
</glyph>
<glyph name="prescription" format="2">
  <advance width="1413"/>
  <unicode hex="211E"/>
  <outline>
    <contour>
      <point x="334" y="1490" type="line"/>
      <point x="838" y="1490" type="line" smooth="yes"/>
      <point x="1015" y="1490"/>
      <point x="1216" y="1365"/>
      <point x="1286" y="1157"/>
      <point x="1265" y="1030" type="qcurve" smooth="yes"/>
      <point x="1246" y="915"/>
      <point x="1136" y="740"/>
      <point x="963" y="623"/>
      <point x="848" y="593" type="qcurve"/>
      <point x="789" y="576" type="line"/>
      <point x="327" y="576" type="line"/>
      <point x="357" y="749" type="line"/>
      <point x="698" y="749" type="line" smooth="yes"/>
      <point x="823" y="749"/>
      <point x="981" y="821"/>
      <point x="1066" y="949"/>
      <point x="1079" y="1032" type="qcurve" smooth="yes"/>
      <point x="1086" y="1074"/>
      <point x="1081" y="1173"/>
      <point x="1031" y="1263"/>
      <point x="915" y="1322"/>
      <point x="810" y="1322" type="qcurve"/>
      <point x="497" y="1323" type="line"/>
      <point x="278" y="0" type="line"/>
      <point x="88" y="0" type="line"/>
    </contour>
    <contour>
      <point x="1032" y="0" type="line"/>
      <point x="664" y="655" type="line"/>
      <point x="872" y="655" type="line"/>
      <point x="1245" y="0" type="line"/>
    </contour>
    <contour>
      <point x="768" y="0" type="line"/>
      <point x="557" y="0" type="line"/>
      <point x="1146" y="655" type="line"/>
      <point x="1351" y="655" type="line"/>
    </contour>
  </outline>
</glyph>
<glyph name="versicle" format="2">
  <advance width="1379"/>
  <unicode hex="2123"/>
  <outline>
    <contour>
      <point x="1170" y="1620" type="line"/>
      <point x="94" y="-360" type="line"/>
      <point x="-76" y="-360" type="line"/>
      <point x="945" y="1530" type="line"/>
      <point x="766" y="1627" type="line"/>
      <point x="876" y="1790" type="line"/>
    </contour>
    <contour>
      <point x="403" y="1490" type="line"/>
      <point x="638" y="248" type="line"/>
      <point x="654" y="248" type="line"/>
      <point x="1298" y="1490" type="line"/>
      <point x="1497" y="1490" type="line"/>
      <point x="701" y="0" type="line"/>
      <point x="504" y="0" type="line"/>
      <point x="203" y="1490" type="line"/>
    </contour>
  </outline>
</glyph>
<glyph name="infinity" format="2">
  <advance width="1917"/>
  <unicode hex="221E"/>
  <outline>
    <contour>
      <point x="549" y="1036" type="qcurve"/>
      <point x="626" y="1037"/>
      <point x="753" y="992"/>
      <point x="857" y="919"/>
      <point x="898" y="875" type="qcurve" smooth="yes"/>
      <point x="922" y="850"/>
      <point x="958" y="804"/>
      <point x="975" y="780" type="qcurve"/>
      <point x="989" y="797"/>
      <point x="1035" y="846"/>
      <point x="1069" y="876" type="qcurve" smooth="yes"/>
      <point x="1137" y="938"/>
      <point x="1326" y="1036"/>
      <point x="1447" y="1036" type="qcurve" smooth="yes"/>
      <point x="1557" y="1036"/>
      <point x="1731" y="929"/>
      <point x="1826" y="747"/>
      <point x="1817" y="633" type="qcurve" smooth="yes"/>
      <point x="1810" y="548"/>
      <point x="1736" y="401"/>
      <point x="1617" y="290"/>
      <point x="1466" y="228"/>
      <point x="1382" y="228" type="qcurve" smooth="yes"/>
      <point x="1306" y="228"/>
      <point x="1178" y="271"/>
      <point x="1075" y="343"/>
      <point x="1035" y="384" type="qcurve" smooth="yes"/>
      <point x="1010" y="410"/>
      <point x="972" y="461"/>
      <point x="952" y="486" type="qcurve"/>
      <point x="934" y="464"/>
      <point x="886" y="412"/>
      <point x="856" y="385" type="qcurve" smooth="yes"/>
      <point x="812" y="345"/>
      <point x="698" y="273"/>
      <point x="563" y="228"/>
      <point x="484" y="228" type="qcurve" smooth="yes"/>
      <point x="373" y="228"/>
      <point x="196" y="336"/>
      <point x="100" y="522"/>
      <point x="110" y="638" type="qcurve" smooth="yes"/>
      <point x="117" y="721"/>
      <point x="192" y="865"/>
      <point x="311" y="975"/>
      <point x="464" y="1036"/>
    </contour>
    <contour>
      <point x="284" y="634" type="qcurve" smooth="yes"/>
      <point x="280" y="570"/>
      <point x="334" y="465"/>
      <point x="434" y="402"/>
      <point x="498" y="402" type="qcurve" smooth="yes"/>
      <point x="568" y="402"/>
      <point x="689" y="464"/>
      <point x="743" y="512" type="qcurve" smooth="yes"/>
      <point x="778" y="543"/>
      <point x="835" y="606"/>
      <point x="857" y="634" type="qcurve"/>
      <point x="838" y="661"/>
      <point x="797" y="718"/>
      <point x="765" y="752" type="qcurve" smooth="yes"/>
      <point x="719" y="801"/>
      <point x="603" y="862"/>
      <point x="535" y="862" type="qcurve" smooth="yes"/>
      <point x="470" y="862"/>
      <point x="359" y="800"/>
      <point x="289" y="697"/>
    </contour>
    <contour>
      <point x="1643" y="634" type="qcurve" smooth="yes"/>
      <point x="1648" y="697"/>
      <point x="1594" y="800"/>
      <point x="1496" y="862"/>
      <point x="1433" y="862" type="qcurve" smooth="yes"/>
      <point x="1384" y="862"/>
      <point x="1294" y="832"/>
      <point x="1216" y="783"/>
      <point x="1183" y="753" type="qcurve" smooth="yes"/>
      <point x="1143" y="718"/>
      <point x="1084" y="648"/>
      <point x="1073" y="634" type="qcurve"/>
      <point x="1088" y="609"/>
      <point x="1134" y="546"/>
      <point x="1164" y="514" type="qcurve" smooth="yes"/>
      <point x="1193" y="484"/>
      <point x="1263" y="433"/>
      <point x="1347" y="402"/>
      <point x="1396" y="402" type="qcurve" smooth="yes"/>
      <point x="1460" y="402"/>
      <point x="1569" y="464"/>
      <point x="1639" y="570"/>
    </contour>
  </outline>
</glyph>
<glyph name="approxequal" format="2">
  <advance width="1356"/>
  <unicode hex="2248"/>
  <outline>
    <contour>
      <point x="150" y="653" type="line"/>
      <point x="167" y="760"/>
      <point x="251" y="912"/>
      <point x="383" y="994"/>
      <point x="472" y="994" type="qcurve" smooth="yes"/>
      <point x="540" y="994"/>
      <point x="678" y="935"/>
      <point x="751" y="862" type="qcurve" smooth="yes"/>
      <point x="804" y="810"/>
      <point x="859" y="777"/>
      <point x="893" y="777" type="qcurve" smooth="yes"/>
      <point x="958" y="777"/>
      <point x="1043" y="870"/>
      <point x="1056" y="954" type="qcurve"/>
      <point x="1218" y="954" type="line"/>
      <point x="1203" y="848"/>
      <point x="1120" y="696"/>
      <point x="987" y="614"/>
      <point x="897" y="614" type="qcurve" smooth="yes"/>
      <point x="830" y="614"/>
      <point x="708" y="675"/>
      <point x="628" y="755" type="qcurve" smooth="yes"/>
      <point x="587" y="796"/>
      <point x="518" y="830"/>
      <point x="474" y="830" type="qcurve" smooth="yes"/>
      <point x="410" y="830"/>
      <point x="328" y="741"/>
      <point x="314" y="653" type="qcurve"/>
    </contour>
    <contour>
      <point x="146" y="213" type="line"/>
      <point x="163" y="318"/>
      <point x="246" y="470"/>
      <point x="378" y="552"/>
      <point x="468" y="552" type="qcurve" smooth="yes"/>
      <point x="536" y="552"/>
      <point x="673" y="493"/>
      <point x="748" y="419" type="qcurve" smooth="yes"/>
      <point x="797" y="370"/>
      <point x="854" y="336"/>
      <point x="889" y="336" type="qcurve" smooth="yes"/>
      <point x="954" y="336"/>
      <point x="1039" y="428"/>
      <point x="1052" y="513" type="qcurve"/>
      <point x="1214" y="513" type="line"/>
      <point x="1199" y="408"/>
      <point x="1117" y="255"/>
      <point x="985" y="172"/>
      <point x="894" y="172" type="qcurve" smooth="yes"/>
      <point x="830" y="172"/>
      <point x="710" y="229"/>
      <point x="624" y="314" type="qcurve" smooth="yes"/>
      <point x="583" y="355"/>
      <point x="514" y="387"/>
      <point x="471" y="387" type="qcurve" smooth="yes"/>
      <point x="407" y="387"/>
      <point x="324" y="299"/>
      <point x="310" y="213" type="qcurve"/>
    </contour>
  </outline>
</glyph>
<glyph name="starwhite" format="2">
  <advance width="2142"/>
  <unicode hex="2606"/>
  <outline>
    <contour>
      <point x="1042" y="382" type="line"/>
      <point x="426" y="-14" type="line"/>
      <point x="750" y="632" type="line"/>
      <point x="264" y="1030" type="line"/>
      <point x="940" y="1030" type="line"/>
      <point x="1256" y="1676" type="line"/>
      <point x="1358" y="1030" type="line"/>
      <point x="2034" y="1030" type="line"/>
      <point x="1416" y="632" type="line"/>
      <point x="1526" y="-14" type="line"/>
    </contour>
    <contour>
      <point x="1070" y="564" type="line"/>
      <point x="1303" y="375" type="line"/>
      <point x="1252" y="687" type="line"/>
      <point x="1554" y="882" type="line"/>
      <point x="1228" y="882" type="line"/>
      <point x="1177" y="1198" type="line"/>
      <point x="1023" y="882" type="line"/>
      <point x="696" y="882" type="line"/>
      <point x="932" y="687" type="line"/>
      <point x="775" y="375" type="line"/>
    </contour>
  </outline>
</glyph>
<glyph name="leftRightLongArrow" format="2">
  <advance width="3584"/>
  <unicode hex="27F7"/>
  <outline>
    <contour>
      <point x="761" y="0" type="line"/>
      <point x="217" y="652" type="line"/>
      <point x="977" y="1304" type="line"/>
      <point x="1074" y="1188" type="line"/>
      <point x="828" y="978" type="line" smooth="yes"/>
      <point x="783" y="940"/>
      <point x="675" y="857"/>
      <point x="563" y="774"/>
      <point x="456" y="700"/>
      <point x="413" y="671" type="qcurve"/>
      <point x="446" y="703" type="line"/>
      <point x="489" y="712"/>
      <point x="575" y="726"/>
      <point x="660" y="735"/>
      <point x="701" y="735" type="qcurve" smooth="yes"/>
      <point x="2941" y="735" type="line" smooth="yes"/>
      <point x="2983" y="735"/>
      <point x="3064" y="726"/>
      <point x="3144" y="712"/>
      <point x="3184" y="703" type="qcurve"/>
      <point x="3207" y="671" type="line"/>
      <point x="3162" y="710"/>
      <point x="3049" y="815"/>
      <point x="2937" y="927"/>
      <point x="2894" y="978" type="qcurve" smooth="yes"/>
      <point x="2718" y="1188" type="line"/>
      <point x="2853" y="1304" type="line"/>
      <point x="3397" y="652" type="line"/>
      <point x="2637" y="0" type="line"/>
      <point x="2540" y="116" type="line"/>
      <point x="2786" y="326" type="line" smooth="yes"/>
      <point x="2831" y="364"/>
      <point x="2939" y="447"/>
      <point x="3051" y="530"/>
      <point x="3158" y="604"/>
      <point x="3201" y="633" type="qcurve"/>
      <point x="3167" y="601" type="line"/>
      <point x="3125" y="593"/>
      <point x="3039" y="578"/>
      <point x="2955" y="569"/>
      <point x="2913" y="569" type="qcurve" smooth="yes"/>
      <point x="673" y="569" type="line" smooth="yes"/>
      <point x="632" y="569"/>
      <point x="550" y="578"/>
      <point x="470" y="593"/>
      <point x="429" y="601" type="qcurve"/>
      <point x="407" y="633" type="line"/>
      <point x="441" y="604"/>
      <point x="522" y="530"/>
      <point x="608" y="447"/>
      <point x="688" y="364"/>
      <point x="720" y="326" type="qcurve" smooth="yes"/>
      <point x="896" y="116" type="line"/>
    </contour>
  </outline>
</glyph>
<glyph name="topHalfWhiteSquare" format="2">
  <advance width="1874"/>
  <unicode hex="2B13"/>
  <outline>
    <contour>
      <point x="272" y="588" type="line"/>
      <point x="1608" y="588" type="line"/>
      <point x="1584" y="442" type="line"/>
      <point x="248" y="442" type="line"/>
    </contour>
    <contour>
      <point x="332" y="0" type="line" smooth="yes"/>
      <point x="100" y="0"/>
      <point x="138" y="232" type="qcurve" smooth="yes"/>
      <point x="306" y="1256" type="line" smooth="yes"/>
      <point x="325" y="1370"/>
      <point x="466" y="1490"/>
      <point x="578" y="1490" type="qcurve" smooth="yes"/>
      <point x="1602" y="1490" type="line" smooth="yes"/>
      <point x="1716" y="1490"/>
      <point x="1815" y="1370"/>
      <point x="1796" y="1256" type="qcurve" smooth="yes"/>
      <point x="1628" y="232" type="line" smooth="yes"/>
      <point x="1609" y="119"/>
      <point x="1469" y="0"/>
      <point x="1356" y="0" type="qcurve" smooth="yes"/>
    </contour>
    <contour>
      <point x="337" y="166" type="qcurve" smooth="yes"/>
      <point x="1355" y="166" type="line" smooth="yes"/>
      <point x="1405" y="166"/>
      <point x="1456" y="205"/>
      <point x="1465" y="260" type="qcurve" smooth="yes"/>
      <point x="1633" y="1280" type="line" smooth="yes"/>
      <point x="1638" y="1311"/>
      <point x="1625" y="1324"/>
      <point x="1597" y="1324" type="qcurve" smooth="yes"/>
      <point x="579" y="1324" type="line" smooth="yes"/>
      <point x="528" y="1324"/>
      <point x="480" y="1282"/>
      <point x="471" y="1228" type="qcurve" smooth="yes"/>
      <point x="302" y="210" type="line" smooth="yes"/>
      <point x="298" y="183"/>
      <point x="315" y="166"/>
    </contour>
  </outline>
</glyph>
<glyph name="one.dnom" format="2">
  <advance width="514"/>
  <unicode hex="E0B5"/>
  <outline>
    <contour>
      <point x="165" y="0" type="line"/>
      <point x="277" y="673" type="line"/>
      <point x="285" y="580" type="line"/>
      <point x="253" y="580"/>
      <point x="163" y="580"/>
      <point x="79" y="580" type="curve"/>
      <point x="96" y="671" type="line"/>
      <point x="215" y="671"/>
      <point x="318" y="736"/>
      <point x="366" y="813" type="curve"/>
      <point x="456" y="813" type="line"/>
      <point x="322" y="0" type="line"/>
    </contour>
  </outline>
</glyph>
<glyph name="two.dnom" format="2">
  <advance width="759"/>
  <unicode hex="E0B6"/>
  <anchor x="422" y="872" name="m.uni030F_1"/>
  <outline>
    <contour>
      <point x="5" y="0" type="line"/>
      <point x="23" y="109" type="line"/>
      <point x="352" y="391" type="line" smooth="yes"/>
      <point x="402" y="434"/>
      <point x="463" y="500"/>
      <point x="495" y="558"/>
      <point x="499" y="588" type="qcurve" smooth="yes"/>
      <point x="507" y="642"/>
      <point x="443" y="701"/>
      <point x="391" y="701" type="qcurve" smooth="yes"/>
      <point x="335" y="701"/>
      <point x="252" y="639"/>
      <point x="243" y="589" type="qcurve"/>
      <point x="94" y="589" type="line"/>
      <point x="112" y="696"/>
      <point x="278" y="821"/>
      <point x="399" y="821" type="qcurve" smooth="yes"/>
      <point x="525" y="821"/>
      <point x="669" y="691"/>
      <point x="650" y="593" type="qcurve" smooth="yes"/>
      <point x="645" y="566"/>
      <point x="617" y="506"/>
      <point x="558" y="429"/>
      <point x="453" y="321"/>
      <point x="370" y="246" type="qcurve" smooth="yes"/>
      <point x="248" y="135" type="line"/>
      <point x="246" y="126" type="line"/>
      <point x="598" y="126" type="line"/>
      <point x="577" y="0" type="line"/>
    </contour>
  </outline>
</glyph>
<glyph name="five.dnom" format="2">
  <advance width="763"/>
  <unicode hex="E0B9"/>
  <outline>
    <contour>
      <point x="296" y="-10" type="qcurve" smooth="yes"/>
      <point x="215" y="-10"/>
      <point x="96" y="49"/>
      <point x="40" y="151"/>
      <point x="51" y="214" type="qcurve"/>
      <point x="204" y="214" type="line"/>
      <point x="197" y="168"/>
      <point x="255" y="111"/>
      <point x="308" y="111" type="qcurve" smooth="yes"/>
      <point x="370" y="111"/>
      <point x="476" y="195"/>
      <point x="486" y="266" type="qcurve" smooth="yes"/>
      <point x="497" y="337"/>
      <point x="424" y="416"/>
      <point x="362" y="416" type="qcurve" smooth="yes"/>
      <point x="334" y="416"/>
      <point x="265" y="393"/>
      <point x="230" y="342" type="qcurve"/>
      <point x="86" y="342" type="line"/>
      <point x="222" y="812" type="line"/>
      <point x="687" y="812" type="line"/>
      <point x="666" y="685" type="line"/>
      <point x="321" y="685" type="line"/>
      <point x="253" y="447" type="line"/>
      <point x="259" y="447" type="line"/>
      <point x="281" y="478"/>
      <point x="377" y="524"/>
      <point x="435" y="524" type="qcurve" smooth="yes"/>
      <point x="538" y="524"/>
      <point x="656" y="377"/>
      <point x="637" y="266" type="qcurve" smooth="yes"/>
      <point x="617" y="146"/>
      <point x="428" y="-10"/>
    </contour>
  </outline>
</glyph>
<glyph name="six.dnom" format="2">
  <advance width="724"/>
  <unicode hex="E0BA"/>
  <outline>
    <contour>
      <point x="265" y="-10" type="qcurve" smooth="yes"/>
      <point x="193" y="-10"/>
      <point x="72" y="49"/>
      <point x="10" y="168"/>
      <point x="24" y="257" type="qcurve" smooth="yes"/>
      <point x="34" y="317"/>
      <point x="95" y="433"/>
      <point x="148" y="496" type="qcurve" smooth="yes"/>
      <point x="415" y="812" type="line"/>
      <point x="560" y="812" type="line"/>
      <point x="249" y="443" type="line"/>
      <point x="193" y="443" type="line"/>
      <point x="214" y="470"/>
      <point x="335" y="510"/>
      <point x="398" y="510" type="qcurve" smooth="yes"/>
      <point x="502" y="510"/>
      <point x="617" y="381"/>
      <point x="597" y="263" type="qcurve" smooth="yes"/>
      <point x="583" y="182"/>
      <point x="486" y="59"/>
      <point x="346" y="-10"/>
    </contour>
    <contour>
      <point x="287" y="110" type="qcurve" smooth="yes"/>
      <point x="347" y="110"/>
      <point x="442" y="192"/>
      <point x="453" y="256" type="qcurve" smooth="yes"/>
      <point x="464" y="320"/>
      <point x="402" y="407"/>
      <point x="339" y="407" type="qcurve" smooth="yes"/>
      <point x="299" y="407"/>
      <point x="228" y="369"/>
      <point x="179" y="302"/>
      <point x="172" y="258" type="qcurve" smooth="yes"/>
      <point x="162" y="193"/>
      <point x="228" y="110"/>
    </contour>
  </outline>
</glyph>
<glyph name="seven.dnom" format="2">
  <advance width="696"/>
  <unicode hex="E0BB"/>
  <outline>
    <contour>
      <point x="24" y="0" type="line"/>
      <point x="480" y="681" type="line"/>
      <point x="481" y="688" type="line"/>
      <point x="86" y="688" type="line"/>
      <point x="107" y="812" type="line"/>
      <point x="670" y="812" type="line"/>
      <point x="648" y="684" type="line"/>
      <point x="189" y="0" type="line"/>
    </contour>
  </outline>
</glyph>
<glyph name="nine.dnom" format="2">
  <advance width="724"/>
  <unicode hex="E0BD"/>
  <outline>
    <contour>
      <point x="405" y="822" type="qcurve" smooth="yes"/>
      <point x="480" y="822"/>
      <point x="599" y="761"/>
      <point x="660" y="643"/>
      <point x="646" y="557" type="qcurve" smooth="yes"/>
      <point x="636" y="495"/>
      <point x="575" y="378"/>
      <point x="522" y="316" type="qcurve" smooth="yes"/>
      <point x="255" y="0" type="line"/>
      <point x="110" y="0" type="line"/>
      <point x="420" y="369" type="line"/>
      <point x="477" y="369" type="line"/>
      <point x="457" y="343"/>
      <point x="336" y="302"/>
      <point x="271" y="302" type="qcurve" smooth="yes"/>
      <point x="166" y="302"/>
      <point x="53" y="431"/>
      <point x="72" y="546" type="qcurve" smooth="yes"/>
      <point x="86" y="629"/>
      <point x="183" y="753"/>
      <point x="325" y="822"/>
    </contour>
    <contour>
      <point x="383" y="703" type="qcurve" smooth="yes"/>
      <point x="322" y="703"/>
      <point x="227" y="619"/>
      <point x="216" y="553" type="qcurve" smooth="yes"/>
      <point x="206" y="487"/>
      <point x="271" y="405"/>
      <point x="331" y="405" type="qcurve" smooth="yes"/>
      <point x="387" y="405"/>
      <point x="485" y="484"/>
      <point x="497" y="551" type="qcurve" smooth="yes"/>
      <point x="509" y="619"/>
      <point x="442" y="703"/>
    </contour>
  </outline>
</glyph>
<glyph name="equal.numr" format="2">
  <advance width="823"/>
  <unicode hex="E0D9"/>
  <outline>
    <contour>
      <point x="240" y="1201" type="line"/>
      <point x="262" y="1328" type="line"/>
      <point x="816" y="1328" type="line"/>
      <point x="794" y="1201" type="line"/>
    </contour>
    <contour>
      <point x="198" y="946" type="line"/>
      <point x="219" y="1075" type="line"/>
      <point x="774" y="1075" type="line"/>
      <point x="752" y="946" type="line"/>
    </contour>
  </outline>
</glyph>
<glyph name="dotmacron.lc" format="2">
  <advance width="495"/>
  <unicode hex="E10C"/>
  <outline>
    <contour>
      <point x="727" y="1781" type="line"/>
      <point x="703" y="1653" type="line"/>
      <point x="149" y="1653" type="line"/>
      <point x="173" y="1781" type="line"/>
    </contour>
    <contour>
      <point x="259" y="1294" type="line"/>
      <point x="292" y="1490" type="line"/>
      <point x="488" y="1490" type="line"/>
      <point x="455" y="1294" type="line"/>
    </contour>
  </outline>
</glyph>
<glyph name="tildeacute.lc" format="2">
  <advance width="1024"/>
  <unicode hex="E112"/>
  <outline>
    <contour>
      <point x="769" y="1286" type="qcurve" smooth="yes"/>
      <point x="732" y="1286"/>
      <point x="665" y="1311"/>
      <point x="607" y="1344"/>
      <point x="559" y="1369"/>
      <point x="540" y="1369" type="qcurve" smooth="yes"/>
      <point x="512" y="1369"/>
      <point x="479" y="1318"/>
      <point x="473" y="1290" type="qcurve"/>
      <point x="347" y="1290" type="line"/>
      <point x="366" y="1382"/>
      <point x="465" y="1498"/>
      <point x="544" y="1498" type="qcurve" smooth="yes"/>
      <point x="583" y="1498"/>
      <point x="645" y="1472"/>
      <point x="698" y="1439"/>
      <point x="746" y="1413"/>
      <point x="771" y="1413" type="qcurve" smooth="yes"/>
      <point x="797" y="1413"/>
      <point x="828" y="1452"/>
      <point x="840" y="1494" type="qcurve"/>
      <point x="963" y="1494" type="line"/>
      <point x="944" y="1397"/>
      <point x="841" y="1286"/>
    </contour>
    <contour>
      <point x="606" y="1615" type="line"/>
      <point x="792" y="1891" type="line"/>
      <point x="993" y="1891" type="line"/>
      <point x="753" y="1615" type="line"/>
    </contour>
  </outline>
</glyph>
<glyph name="t.1" format="2">
  <advance width="641"/>
  <unicode hex="EE06"/>
  <anchor x="397" y="0" name="m.uni0326"/>
  <anchor x="553" y="1424" name="m.uni030F_1"/>
  <anchor x="519" y="0" name="m.uni0327_3"/>
  <outline>
    <contour>
      <point x="660" y="1118" type="line"/>
      <point x="636" y="972" type="line"/>
      <point x="308" y="972" type="line"/>
      <point x="332" y="1118" type="line"/>
    </contour>
    <contour>
      <point x="295" y="1384" type="line"/>
      <point x="475" y="1384" type="line"/>
      <point x="294" y="290" type="line" smooth="yes"/>
      <point x="281" y="213"/>
      <point x="333" y="146"/>
      <point x="402" y="146" type="qcurve" smooth="yes"/>
      <point x="419" y="146"/>
      <point x="473" y="154"/>
      <point x="496" y="158" type="qcurve"/>
      <point x="507" y="6" type="line"/>
      <point x="480" y="-3"/>
      <point x="408" y="-14"/>
      <point x="371" y="-14" type="qcurve" smooth="yes"/>
      <point x="224" y="-14"/>
      <point x="89" y="140"/>
      <point x="111" y="276" type="qcurve" smooth="yes"/>
    </contour>
  </outline>
</glyph>
<glyph name="copyleftsymbol" format="2">
  <advance width="1874"/>
  <unicode hex="1F12F"/>
  <outline>
    <contour>
      <point x="1394" y="744" type="qcurve" smooth="yes"/>
      <point x="1374" y="625"/>
      <point x="1225" y="429"/>
      <point x="1010" y="313"/>
      <point x="890" y="312" type="qcurve"/>
      <point x="787" y="313"/>
      <point x="635" y="402"/>
      <point x="552" y="555"/>
      <point x="554" y="652" type="qcurve"/>
      <point x="730" y="652" type="line"/>
      <point x="732" y="578"/>
      <point x="834" y="481"/>
      <point x="918" y="482" type="qcurve"/>
      <point x="991" y="482"/>
      <point x="1122" y="552"/>
      <point x="1213" y="672"/>
      <point x="1224" y="744" type="qcurve"/>
      <point x="1237" y="817"/>
      <point x="1186" y="937"/>
      <point x="1079" y="1008"/>
      <point x="1006" y="1008" type="qcurve" smooth="yes"/>
      <point x="921" y="1008"/>
      <point x="772" y="913"/>
      <point x="746" y="838" type="qcurve"/>
      <point x="570" y="838" type="line"/>
      <point x="600" y="935"/>
      <point x="740" y="1088"/>
      <point x="929" y="1177"/>
      <point x="1032" y="1176" type="qcurve"/>
      <point x="1152" y="1177"/>
      <point x="1329" y="1060"/>
      <point x="1414" y="864"/>
    </contour>
    <contour>
      <point x="847" y="-24" type="qcurve" smooth="yes"/>
      <point x="689" y="-24"/>
      <point x="431" y="95"/>
      <point x="253" y="306"/>
      <point x="179" y="584"/>
      <point x="206" y="743" type="qcurve" smooth="yes"/>
      <point x="233" y="902"/>
      <point x="398" y="1180"/>
      <point x="644" y="1392"/>
      <point x="942" y="1512"/>
      <point x="1101" y="1512" type="qcurve" smooth="yes"/>
      <point x="1260" y="1512"/>
      <point x="1517" y="1394"/>
      <point x="1693" y="1185"/>
      <point x="1768" y="908"/>
      <point x="1743" y="749" type="qcurve" smooth="yes"/>
      <point x="1718" y="590"/>
      <point x="1554" y="310"/>
      <point x="1308" y="97"/>
      <point x="1008" y="-24"/>
    </contour>
    <contour>
      <point x="876" y="151" type="qcurve" smooth="yes"/>
      <point x="999" y="151"/>
      <point x="1231" y="243"/>
      <point x="1422" y="407"/>
      <point x="1550" y="623"/>
      <point x="1569" y="747" type="qcurve" smooth="yes"/>
      <point x="1589" y="871"/>
      <point x="1531" y="1086"/>
      <point x="1394" y="1248"/>
      <point x="1194" y="1339"/>
      <point x="1072" y="1339" type="qcurve" smooth="yes"/>
      <point x="949" y="1339"/>
      <point x="719" y="1246"/>
      <point x="529" y="1081"/>
      <point x="402" y="866"/>
      <point x="381" y="743" type="qcurve" smooth="yes"/>
      <point x="360" y="620"/>
      <point x="417" y="406"/>
      <point x="554" y="243"/>
      <point x="754" y="151"/>
    </contour>
  </outline>
</glyph>
<glyph name="_part.crossbar_vert" format="2">
  <advance width="419"/>
  <outline>
    <contour>
      <point x="106" y="422" type="line"/>
      <point x="213" y="1068" type="line"/>
      <point x="375" y="1068" type="line"/>
      <point x="268" y="422" type="line"/>
    </contour>
  </outline>
</glyph>
<glyph name="_part.f_base" format="2">
  <advance width="745"/>
  <anchor x="844" y="1597" name="m.uni030F_1"/>
  <outline>
    <contour>
      <point x="138" y="0" type="line"/>
      <point x="336" y="1195" type="line" smooth="yes"/>
      <point x="356" y="1313"/>
      <point x="460" y="1476"/>
      <point x="624" y="1560"/>
      <point x="732" y="1560" type="qcurve" smooth="yes"/>
      <point x="771" y="1560"/>
      <point x="841" y="1548"/>
      <point x="877" y="1540" type="qcurve"/>
      <point x="827" y="1386" type="line"/>
      <point x="810" y="1390"/>
      <point x="736" y="1394"/>
      <point x="706" y="1394" type="qcurve" smooth="yes"/>
      <point x="626" y="1394"/>
      <point x="534" y="1298"/>
      <point x="517" y="1198" type="qcurve" smooth="yes"/>
      <point x="319" y="0" type="line"/>
    </contour>
  </outline>
</glyph>
<glyph name="f.1" format="2">
  <advance width="673"/>
  <anchor x="298" y="0" name="m.uni0326"/>
  <anchor x="749" y="1597" name="m.uni030F_1"/>
  <outline>
    <contour>
      <point x="689" y="1118" type="line"/>
      <point x="665" y="972" type="line"/>
      <point x="309" y="972" type="line"/>
      <point x="333" y="1118" type="line"/>
    </contour>
    <contour>
      <point x="64" y="0" type="line"/>
      <point x="262" y="1195" type="line" smooth="yes"/>
      <point x="282" y="1313"/>
      <point x="386" y="1476"/>
      <point x="550" y="1560"/>
      <point x="658" y="1560" type="qcurve" smooth="yes"/>
      <point x="697" y="1560"/>
      <point x="767" y="1548"/>
      <point x="803" y="1540" type="qcurve"/>
      <point x="753" y="1386" type="line"/>
      <point x="736" y="1390"/>
      <point x="662" y="1394"/>
      <point x="632" y="1394" type="qcurve" smooth="yes"/>
      <point x="552" y="1394"/>
      <point x="460" y="1298"/>
      <point x="443" y="1198" type="qcurve" smooth="yes"/>
      <point x="245" y="0" type="line"/>
    </contour>
  </outline>
</glyph>
<glyph name="ogonek.O" format="2">
  <advance width="818"/>
  <outline>
    <contour>
      <point x="54" y="-436" type="qcurve" smooth="yes"/>
      <point x="-42" y="-436"/>
      <point x="-166" y="-335"/>
      <point x="-148" y="-237" type="qcurve" smooth="yes"/>
      <point x="-133" y="-156"/>
      <point x="-23" y="-40"/>
      <point x="138" y="56"/>
      <point x="324" y="157"/>
      <point x="508" y="287"/>
      <point x="664" y="470"/>
      <point x="767" y="730"/>
      <point x="776" y="911" type="qcurve"/>
      <point x="863" y="911" type="line"/>
      <point x="852" y="711"/>
      <point x="755" y="420"/>
      <point x="611" y="217"/>
      <point x="443" y="79"/>
      <point x="277" y="-15"/>
      <point x="136" y="-88"/>
      <point x="45" y="-159"/>
      <point x="37" y="-207" type="qcurve" smooth="yes"/>
      <point x="31" y="-245"/>
      <point x="67" y="-285"/>
      <point x="107" y="-285" type="qcurve" smooth="yes"/>
      <point x="137" y="-285"/>
      <point x="187" y="-267"/>
      <point x="205" y="-257" type="qcurve"/>
      <point x="243" y="-386" type="line"/>
      <point x="210" y="-403"/>
      <point x="116" y="-436"/>
    </contour>
  </outline>
</glyph>
<glyph name="quotereversed.ss03" format="2">
  <advance width="612"/>
  <outline>
    <contour>
      <point x="455" y="951" type="line"/>
      <point x="397" y="980"/>
      <point x="308" y="1078"/>
      <point x="270" y="1220"/>
      <point x="285" y="1315" type="qcurve" smooth="yes"/>
      <point x="299" y="1403"/>
      <point x="398" y="1506"/>
      <point x="469" y="1506" type="qcurve" smooth="yes"/>
      <point x="533" y="1506"/>
      <point x="595" y="1429"/>
      <point x="586" y="1372" type="qcurve" smooth="yes"/>
      <point x="577" y="1315"/>
      <point x="494" y="1239"/>
      <point x="441" y="1239" type="qcurve" smooth="yes"/>
      <point x="404" y="1239"/>
      <point x="372" y="1302"/>
      <point x="377" y="1335" type="qcurve"/>
      <point x="396" y="1335" type="line"/>
      <point x="396" y="1334"/>
      <point x="391" y="1289"/>
      <point x="387" y="1243"/>
      <point x="387" y="1240" type="qcurve" smooth="yes"/>
      <point x="387" y="1189"/>
      <point x="417" y="1119"/>
      <point x="475" y="1067"/>
      <point x="516" y="1043" type="qcurve"/>
    </contour>
  </outline>
</glyph>
<glyph name="slashshort.uc" format="2">
  <advance width="746"/>
  <outline>
    <contour>
      <point x="-3" y="535" type="line"/>
      <point x="28" y="724" type="line"/>
      <point x="844" y="1154" type="line"/>
      <point x="813" y="965" type="line"/>
    </contour>
  </outline>
</glyph>
<glyph name="u.1" format="2">
  <advance width="1211"/>
  <anchor x="681" y="0" name="m.uni0326"/>
  <anchor x="879" y="1180" name="m.uni030F_1"/>
  <anchor x="1460" y="524" name="m.uni0328_4"/>
  <outline>
    <contour>
      <point x="510" y="-20" type="qcurve" smooth="yes"/>
      <point x="369" y="-20"/>
      <point x="185" y="81"/>
      <point x="112" y="276"/>
      <point x="135" y="418" type="qcurve" smooth="yes"/>
      <point x="251" y="1118" type="line"/>
      <point x="431" y="1118" type="line"/>
      <point x="317" y="427" type="line" smooth="yes"/>
      <point x="301" y="330"/>
      <point x="342" y="205"/>
      <point x="451" y="144"/>
      <point x="537" y="144" type="qcurve" smooth="yes"/>
      <point x="624" y="144"/>
      <point x="753" y="205"/>
      <point x="835" y="330"/>
      <point x="851" y="427" type="qcurve" smooth="yes"/>
      <point x="965" y="1118" type="line"/>
      <point x="1145" y="1118" type="line"/>
      <point x="1030" y="418" type="line" smooth="yes"/>
      <point x="1007" y="278"/>
      <point x="870" y="82"/>
      <point x="653" y="-20"/>
    </contour>
  </outline>
</glyph>
